<svg version="1.1" xmlns="http://www.w3.org/2000/svg" viewBox="0 0 800.0001 238.93346549651488" width="800.0001" height="238.93346549651488"><!-- svg-source:excalidraw --><metadata></metadata><defs><style class="style-fonts">
      </style></defs><rect x="0" y="0" width="800.0001" height="238.93346549651488" fill="rgba(255,255,255,0)"></rect><g transform="translate(317 12) rotate(0 0.00004999999998744897 0.00005000000000165983)" stroke="none"><path fill="#e06458" d="M 3.14,-3.14 Q 3.14,-3.14 3.55,-2.55 3.97,-1.97 4.18,-1.28 4.40,-0.59 4.38,0.11 4.36,0.83 4.11,1.51 3.86,2.18 3.41,2.74 2.96,3.30 2.36,3.69 1.75,4.08 1.05,4.25 0.36,4.42 -0.35,4.36 -1.07,4.31 -1.73,4.02 -2.39,3.74 -2.92,3.26 -3.46,2.78 -3.81,2.15 -4.16,1.53 -4.30,0.82 -4.43,0.11 -4.34,-0.59 -4.24,-1.30 -3.92,-1.94 -3.60,-2.59 -3.09,-3.09 -2.59,-3.60 -1.94,-3.92 -1.30,-4.24 -0.59,-4.34 0.12,-4.43 0.82,-4.30 1.53,-4.16 2.15,-3.81 2.78,-3.46 3.26,-2.92 3.74,-2.39 4.02,-1.73 4.31,-1.07 4.36,-0.35 4.42,0.36 4.25,1.05 4.07,1.75 3.69,2.36 3.30,2.96 2.74,3.41 2.18,3.86 1.51,4.11 0.83,4.36 0.11,4.38 -0.60,4.40 -1.28,4.18 -1.97,3.97 -2.55,3.55 -3.14,3.13 -3.14,3.14 -3.14,3.14 -3.47,2.71 -3.80,2.29 -4.02,1.80 -4.24,1.32 -4.33,0.79 -4.43,0.26 -4.40,-0.26 -4.36,-0.80 -4.20,-1.31 -4.04,-1.82 -3.77,-2.28 -3.49,-2.73 -3.11,-3.11 -2.73,-3.49 -2.28,-3.77 -1.82,-4.05 -1.31,-4.20 -0.80,-4.36 -0.26,-4.40 0.26,-4.43 0.79,-4.33 1.32,-4.24 1.80,-4.02 2.29,-3.80 2.71,-3.47 3.14,-3.14 3.14,-3.14 L 3.14,-3.14 Z"></path></g><g transform="translate(317 11) rotate(0 0.5 24)" stroke="none"><path fill="#e06458" d="M 5.09,0 Q 5.09,0 5.11,2.58 5.13,5.17 5.18,9.98 5.22,14.79 5.28,19.47 5.34,24.14 5.31,26.98 5.28,29.81 5.36,34.19 5.45,38.57 6.00,41.27 6.55,43.96 6.72,45.80 6.90,47.64 6.80,48.59 6.70,49.55 6.31,50.42 5.91,51.29 5.25,51.99 4.60,52.68 3.76,53.14 2.91,53.59 1.97,53.75 1.03,53.91 0.08,53.76 -0.85,53.61 -1.70,53.17 -2.55,52.72 -3.21,52.03 -3.87,51.34 -4.28,50.47 -4.69,49.61 -4.79,48.66 -4.90,47.71 -4.70,46.77 -4.50,45.84 -4.01,45.01 -3.52,44.19 -2.80,43.57 -2.07,42.94 -1.18,42.58 -0.30,42.23 0.65,42.17 1.60,42.11 2.53,42.36 3.45,42.61 4.24,43.15 5.04,43.68 5.62,44.44 6.21,45.20 6.52,46.10 6.83,47.01 6.83,47.96 6.84,48.92 6.54,49.83 6.24,50.74 5.66,51.50 5.09,52.27 4.30,52.81 3.51,53.35 2.59,53.61 1.67,53.87 0.71,53.83 -0.24,53.78 -1.13,53.43 -2.02,53.08 -2.75,52.46 -3.48,51.85 -3.98,51.03 -4.48,50.21 -4.69,49.28 -4.90,48.35 -4.90,48.35 -4.90,48.35 -4.90,46.80 -4.90,45.24 -5.17,41.91 -5.45,38.57 -5.36,34.19 -5.28,29.81 -5.31,26.98 -5.34,24.14 -5.28,19.47 -5.22,14.79 -5.18,9.98 -5.13,5.17 -5.11,2.58 -5.09,0 -5.01,-0.60 -4.94,-1.21 -4.72,-1.79 -4.50,-2.36 -4.15,-2.87 -3.81,-3.37 -3.35,-3.78 -2.89,-4.18 -2.34,-4.47 -1.80,-4.75 -1.20,-4.90 -0.61,-5.05 0.00,-5.05 0.61,-5.05 1.20,-4.90 1.80,-4.75 2.34,-4.47 2.89,-4.18 3.35,-3.78 3.81,-3.37 4.15,-2.87 4.50,-2.36 4.72,-1.79 4.94,-1.21 5.01,-0.60 5.09,0.00 5.09,0.00 L 5.09,0 Z"></path></g><g transform="translate(320 34) rotate(0 14.5 -1)" stroke="none"><path fill="#e06458" d="M -0.56,-5.05 Q -0.56,-5.05 2.02,-5.36 4.60,-5.67 9.06,-5.97 13.51,-6.28 15.95,-6.32 18.39,-6.36 21.75,-6.74 25.10,-7.12 26.66,-7.40 28.21,-7.67 29.14,-7.65 30.07,-7.62 30.94,-7.31 31.81,-6.99 32.53,-6.41 33.25,-5.83 33.76,-5.05 34.26,-4.27 34.48,-3.37 34.71,-2.47 34.63,-1.54 34.56,-0.62 34.19,0.22 33.83,1.07 33.21,1.77 32.59,2.46 31.78,2.91 30.98,3.37 30.07,3.55 29.16,3.72 28.24,3.60 27.32,3.47 26.49,3.06 25.66,2.65 25.00,2.00 24.35,1.34 23.93,0.51 23.52,-0.31 23.39,-1.22 23.27,-2.14 23.44,-3.05 23.61,-3.96 24.07,-4.77 24.52,-5.58 25.21,-6.20 25.90,-6.82 26.75,-7.19 27.60,-7.55 28.53,-7.63 29.45,-7.71 30.35,-7.48 31.25,-7.26 32.03,-6.76 32.82,-6.26 33.40,-5.54 33.98,-4.82 34.30,-3.95 34.62,-3.08 34.65,-2.16 34.67,-1.23 34.40,-0.34 34.13,0.53 33.59,1.29 33.05,2.04 32.30,2.58 31.55,3.13 30.66,3.40 29.78,3.67 29.78,3.67 29.78,3.67 28.20,3.83 26.63,3.98 22.56,4.21 18.49,4.43 16.13,4.43 13.76,4.43 9.75,4.48 5.74,4.52 3.15,4.79 0.56,5.05 -0.05,5.05 -0.66,5.04 -1.25,4.89 -1.85,4.73 -2.39,4.44 -2.93,4.15 -3.38,3.74 -3.84,3.33 -4.18,2.82 -4.53,2.31 -4.74,1.74 -4.95,1.16 -5.02,0.55 -5.08,-0.05 -5.00,-0.66 -4.92,-1.26 -4.70,-1.83 -4.48,-2.41 -4.12,-2.91 -3.77,-3.41 -3.31,-3.81 -2.84,-4.21 -2.30,-4.49 -1.75,-4.77 -1.15,-4.91 -0.56,-5.05 -0.56,-5.05 L -0.56,-5.05 Z"></path></g><g transform="translate(351 19) rotate(0 -1 26.5)" stroke="none"><path fill="#e06458" d="M 4.53,-0.45 Q 4.53,-0.45 4.85,2.42 5.17,5.29 5.07,8.33 4.96,11.36 4.76,14.97 4.56,18.58 4.21,22.06 3.86,25.53 3.49,29.66 3.13,33.79 3.07,37.31 3.00,40.82 2.95,45.00 2.89,49.18 2.21,51.80 1.52,54.42 1.17,55.10 0.83,55.79 0.28,56.33 -0.25,56.87 -0.94,57.20 -1.63,57.54 -2.39,57.64 -3.16,57.74 -3.91,57.59 -4.66,57.44 -5.33,57.05 -5.99,56.67 -6.50,56.10 -7.01,55.52 -7.31,54.82 -7.61,54.11 -7.66,53.34 -7.72,52.58 -7.53,51.83 -7.34,51.09 -6.92,50.45 -6.50,49.80 -5.90,49.33 -5.30,48.85 -4.58,48.59 -3.86,48.33 -3.09,48.31 -2.32,48.30 -1.59,48.53 -0.86,48.76 -0.24,49.21 0.37,49.66 0.82,50.29 1.26,50.92 1.48,51.65 1.70,52.39 1.67,53.15 1.65,53.92 1.38,54.64 1.11,55.36 0.62,55.95 0.14,56.55 -0.50,56.96 -1.15,57.37 -1.90,57.55 -2.64,57.73 -3.41,57.66 -4.17,57.59 -4.87,57.28 -5.58,56.97 -6.15,56.46 -6.71,55.94 -7.09,55.27 -7.46,54.60 -7.60,53.85 -7.74,53.09 -7.63,52.33 -7.52,51.57 -7.52,51.57 -7.52,51.57 -6.77,49.61 -6.01,47.65 -5.42,44.17 -4.83,40.69 -4.78,37.12 -4.73,33.54 -4.83,29.12 -4.92,24.69 -4.63,21.55 -4.35,18.41 -4.41,14.59 -4.48,10.77 -4.25,8.48 -4.02,6.20 -4.27,3.32 -4.53,0.45 -4.52,-0.09 -4.51,-0.64 -4.36,-1.17 -4.22,-1.70 -3.95,-2.18 -3.69,-2.66 -3.32,-3.07 -2.94,-3.47 -2.49,-3.77 -2.03,-4.07 -1.51,-4.26 -0.99,-4.44 -0.44,-4.50 0.09,-4.55 0.64,-4.47 1.18,-4.40 1.69,-4.19 2.20,-3.98 2.64,-3.66 3.09,-3.34 3.44,-2.92 3.80,-2.50 4.04,-2.01 4.29,-1.52 4.41,-0.98 4.53,-0.45 4.53,-0.45 L 4.53,-0.45 Z"></path></g><g transform="translate(396 45) rotate(0 -7.5 12)" stroke="none"><path fill="#e06458" d="M -1.69,5.07 Q -1.69,5.07 -3.42,4.56 -5.16,4.05 -7.39,3.96 -9.62,3.87 -12.52,3.97 -15.43,4.07 -17.98,4.14 -20.53,4.21 -21.42,6.25 -22.31,8.29 -20.04,10.26 -17.76,12.22 -14.12,14.07 -10.47,15.91 -5.97,17.50 -1.47,19.09 1.26,19.41 3.99,19.74 5.67,18.07 7.35,16.40 7.39,13.78 7.43,11.15 5.65,8.22 3.87,5.29 3.32,4.36 2.77,3.43 2.54,2.38 2.32,1.32 2.44,0.24 2.56,-0.82 3.02,-1.80 3.48,-2.78 4.23,-3.56 4.98,-4.34 5.94,-4.84 6.90,-5.34 7.97,-5.51 9.03,-5.68 10.10,-5.50 11.17,-5.32 12.12,-4.81 13.07,-4.29 13.81,-3.50 14.55,-2.71 15.00,-1.73 15.45,-0.75 15.56,0.32 15.67,1.40 15.43,2.45 15.19,3.51 14.63,4.43 14.07,5.35 13.24,6.05 12.41,6.75 11.40,7.14 10.39,7.53 9.31,7.59 8.23,7.64 7.19,7.34 6.15,7.05 5.26,6.43 4.37,5.82 3.72,4.96 3.07,4.09 2.73,3.06 2.39,2.04 2.40,0.95 2.40,-0.12 2.75,-1.14 3.11,-2.16 3.77,-3.02 4.43,-3.88 5.33,-4.48 6.22,-5.08 7.27,-5.36 8.31,-5.65 9.39,-5.58 10.47,-5.52 11.48,-5.11 12.48,-4.70 13.30,-4.00 14.12,-3.29 14.12,-3.29 14.12,-3.29 15.77,-1.20 17.43,0.88 18.63,3.98 19.84,7.07 20.10,10.87 20.37,14.67 19.84,18.32 19.31,21.97 18.35,23.88 17.38,25.80 15.87,27.48 14.37,29.17 10.02,30.61 5.67,32.05 2.74,31.70 -0.18,31.35 -2.85,30.86 -5.52,30.36 -7.76,29.59 -10.00,28.83 -12.35,28.13 -14.71,27.43 -17.70,26.35 -20.70,25.26 -23.61,23.55 -26.51,21.84 -28.35,20.12 -30.18,18.41 -32.09,15.82 -33.99,13.23 -34.72,10.38 -35.45,7.53 -34.97,4.79 -34.48,2.04 -32.95,-0.78 -31.42,-3.61 -27.96,-5.58 -24.49,-7.55 -21.55,-7.83 -18.60,-8.12 -15.85,-8.02 -13.11,-7.93 -10.89,-7.75 -8.67,-7.57 -5.20,-6.96 -1.73,-6.35 -0.02,-5.71 1.69,-5.07 2.27,-4.79 2.85,-4.51 3.35,-4.11 3.85,-3.70 4.24,-3.18 4.62,-2.67 4.88,-2.08 5.13,-1.48 5.23,-0.85 5.34,-0.21 5.28,0.42 5.23,1.06 5.03,1.67 4.82,2.28 4.48,2.83 4.14,3.37 3.67,3.82 3.21,4.27 2.65,4.59 2.09,4.91 1.47,5.09 0.85,5.27 0.21,5.30 -0.42,5.32 -1.05,5.19 -1.69,5.07 -1.69,5.07 L -1.69,5.07 Z"></path></g><g transform="translate(427 48) rotate(0 40.5 10)" stroke="none"><path fill="#e06458" d="M -3.40,0.89 Q -3.40,0.89 -0.42,-0.84 2.55,-2.58 5.19,-2.34 7.83,-2.10 9.48,-0.50 11.12,1.10 11.77,3.96 12.42,6.82 12.54,11.49 12.67,16.16 12.78,18.92 12.90,21.68 14.13,17.89 15.36,14.10 17.09,11.65 18.82,9.19 20.82,6.28 22.82,3.37 24.59,0.02 26.35,-3.31 27.23,-4.95 28.12,-6.59 28.42,-7.09 28.71,-7.59 29.12,-8.00 29.53,-8.41 30.03,-8.72 30.52,-9.02 31.07,-9.20 31.63,-9.37 32.21,-9.41 32.79,-9.45 33.36,-9.35 33.93,-9.25 34.46,-9.01 34.99,-8.78 35.45,-8.42 35.91,-8.07 36.27,-7.61 36.64,-7.16 36.88,-6.63 37.12,-6.10 37.23,-5.53 37.34,-4.96 37.30,-4.38 37.27,-3.80 37.10,-3.24 36.93,-2.69 38.00,0.01 39.06,2.73 39.13,5.34 39.19,7.95 39.33,11.85 39.48,15.75 39.82,18.10 40.16,20.45 43.52,18.53 46.88,16.60 49.92,14.64 52.96,12.68 56.14,10.43 59.33,8.17 62.98,5.02 66.63,1.87 69.41,-0.58 72.18,-3.03 73.65,-4.93 75.11,-6.83 76.28,-8.41 77.45,-9.99 78.02,-10.48 78.59,-10.97 79.29,-11.25 79.99,-11.53 80.74,-11.57 81.49,-11.62 82.21,-11.42 82.94,-11.22 83.56,-10.80 84.18,-10.38 84.64,-9.78 85.10,-9.18 85.34,-8.47 85.58,-7.76 85.58,-7.01 85.58,-6.25 85.34,-5.54 85.10,-4.83 84.65,-4.23 84.20,-3.63 83.58,-3.21 82.96,-2.78 82.23,-2.58 81.51,-2.38 80.76,-2.42 80.01,-2.46 79.31,-2.73 78.61,-3.01 78.03,-3.49 77.46,-3.98 77.07,-4.62 76.68,-5.27 76.52,-6.00 76.36,-6.73 76.44,-7.48 76.52,-8.23 76.83,-8.91 77.14,-9.59 77.66,-10.14 78.18,-10.69 78.84,-11.04 79.50,-11.40 80.24,-11.52 80.99,-11.64 81.73,-11.52 82.47,-11.40 83.13,-11.05 83.80,-10.70 84.32,-10.15 84.84,-9.61 85.15,-8.93 85.47,-8.25 85.55,-7.50 85.64,-6.75 85.47,-6.02 85.31,-5.28 84.93,-4.64 84.54,-3.99 84.54,-3.99 84.54,-4.00 83.18,-2.58 81.82,-1.16 79.85,0.98 77.88,3.13 75.30,5.62 72.72,8.10 69.17,11.97 65.63,15.84 62.70,18.60 59.77,21.37 56.54,24.32 53.31,27.27 50.88,28.72 48.46,30.17 46.07,30.81 43.68,31.44 41.00,31.23 38.32,31.02 36.19,30.45 34.05,29.88 31.51,26.48 28.98,23.08 28.73,19.44 28.49,15.79 28.60,11.94 28.71,8.09 28.70,5.72 28.70,3.36 28.91,1.20 29.11,-0.94 28.61,-3.76 28.12,-6.59 28.42,-7.09 28.71,-7.59 29.12,-8.00 29.53,-8.41 30.03,-8.72 30.52,-9.02 31.07,-9.20 31.63,-9.37 32.21,-9.41 32.79,-9.45 33.36,-9.35 33.93,-9.25 34.46,-9.01 34.99,-8.78 35.45,-8.42 35.91,-8.07 36.27,-7.61 36.64,-7.16 36.88,-6.63 37.12,-6.10 37.23,-5.53 37.34,-4.96 37.30,-4.38 37.27,-3.80 37.10,-3.24 36.93,-2.69 35.83,-1.14 34.73,0.40 33.18,4.56 31.62,8.72 29.87,11.96 28.12,15.21 26.43,18.03 24.74,20.86 22.97,23.69 21.19,26.51 18.53,29.08 15.88,31.64 12.90,32.13 9.92,32.62 6.25,29.85 2.59,27.09 1.83,24.55 1.08,22.02 1.15,19.16 1.23,16.30 1.14,13.71 1.06,11.12 2.70,8.82 4.34,6.52 3.87,7.71 3.40,8.90 2.87,9.25 2.34,9.60 1.75,9.82 1.15,10.03 0.52,10.09 -0.10,10.15 -0.73,10.07 -1.36,9.98 -1.95,9.74 -2.54,9.50 -3.05,9.13 -3.56,8.76 -3.97,8.28 -4.39,7.79 -4.67,7.23 -4.95,6.66 -5.09,6.04 -5.23,5.42 -5.22,4.79 -5.20,4.15 -5.04,3.54 -4.87,2.93 -4.57,2.37 -4.26,1.82 -3.83,1.35 -3.40,0.89 -3.40,0.89 L -3.40,0.89 Z"></path></g><g transform="translate(222.90937095603903 188.16645590801318) rotate(5.44033203100553 17.076923076923066 -4.9193548387096655)" stroke="none"><path fill="#e06458" d="M -1.82,-4.68 Q -1.82,-4.68 0.34,-5.58 2.50,-6.48 5.84,-8.06 9.18,-9.64 12.31,-10.76 15.43,-11.89 18.21,-12.56 20.99,-13.23 23.70,-13.74 26.42,-14.25 29.99,-14.73 33.56,-15.21 34.43,-15.17 35.31,-15.12 36.12,-14.80 36.94,-14.47 37.60,-13.91 38.27,-13.34 38.72,-12.59 39.18,-11.84 39.36,-10.99 39.55,-10.13 39.46,-9.26 39.36,-8.39 39.00,-7.59 38.63,-6.80 38.03,-6.16 37.43,-5.53 36.65,-5.12 35.88,-4.71 35.02,-4.56 34.15,-4.42 33.29,-4.56 32.42,-4.70 31.65,-5.11 30.88,-5.52 30.27,-6.16 29.67,-6.79 29.30,-7.59 28.93,-8.38 28.84,-9.25 28.74,-10.12 28.93,-10.98 29.12,-11.83 29.57,-12.58 30.02,-13.34 30.69,-13.90 31.36,-14.47 32.17,-14.79 32.98,-15.12 33.86,-15.17 34.73,-15.21 35.58,-14.98 36.42,-14.75 37.14,-14.26 37.87,-13.76 38.40,-13.07 38.93,-12.37 39.21,-11.54 39.49,-10.71 39.49,-9.84 39.49,-8.96 39.21,-8.13 38.93,-7.30 38.40,-6.60 37.87,-5.91 37.15,-5.41 36.42,-4.92 35.58,-4.69 34.74,-4.45 34.74,-4.45 34.74,-4.45 31.55,-4.20 28.36,-3.94 23.80,-3.09 19.25,-2.24 16.32,-0.96 13.39,0.31 9.80,1.70 6.22,3.08 4.02,3.88 1.82,4.68 1.23,4.83 0.64,4.98 0.04,4.99 -0.56,4.99 -1.15,4.85 -1.74,4.71 -2.28,4.43 -2.82,4.16 -3.27,3.76 -3.73,3.36 -4.08,2.86 -4.43,2.37 -4.65,1.80 -4.87,1.24 -4.94,0.64 -5.02,0.04 -4.95,-0.56 -4.89,-1.16 -4.68,-1.73 -4.47,-2.29 -4.13,-2.80 -3.79,-3.30 -3.34,-3.70 -2.89,-4.11 -2.35,-4.39 -1.82,-4.68 -1.82,-4.68 L -1.82,-4.68 Z"></path></g><g transform="translate(242.10683854110312 161.13227522125288) rotate(5.44033203100553 13.28205128205127 30.5)" stroke="none"><path fill="#e06458" d="M 4.48,0.78 Q 4.48,0.78 3.93,3.89 3.37,7.00 3.08,10.33 2.80,13.67 2.70,16.82 2.61,19.96 2.55,23.27 2.49,26.58 2.32,30.53 2.15,34.48 2.24,37.30 2.32,40.11 2.39,43.01 2.45,45.90 2.53,48.54 2.61,51.18 2.84,53.75 3.07,56.32 5.05,55.30 7.03,54.27 9.69,52.99 12.34,51.72 14.68,50.21 17.01,48.71 19.67,47.34 22.32,45.97 24.04,45.02 25.76,44.08 26.64,43.78 27.53,43.48 28.47,43.48 29.40,43.48 30.29,43.78 31.17,44.08 31.92,44.65 32.66,45.22 33.18,45.99 33.71,46.77 33.96,47.67 34.21,48.57 34.15,49.51 34.10,50.44 33.75,51.31 33.41,52.18 32.80,52.89 32.19,53.60 31.39,54.08 30.59,54.56 29.67,54.76 28.76,54.96 27.83,54.86 26.90,54.76 26.05,54.36 25.20,53.97 24.53,53.32 23.85,52.68 23.41,51.85 22.97,51.03 22.82,50.10 22.68,49.18 22.83,48.26 22.98,47.33 23.42,46.51 23.86,45.68 24.54,45.04 25.22,44.40 26.07,44.01 26.92,43.62 27.85,43.52 28.78,43.42 29.69,43.62 30.61,43.82 31.41,44.31 32.21,44.79 32.81,45.50 33.42,46.22 33.76,47.09 34.11,47.96 34.15,48.89 34.20,49.82 33.95,50.73 33.70,51.63 33.17,52.40 32.65,53.17 31.90,53.74 31.15,54.30 31.16,54.30 31.16,54.30 29.41,55.19 27.66,56.07 25.61,57.18 23.57,58.29 21.28,59.96 18.98,61.63 14.80,63.53 10.61,65.43 7.96,66.08 5.31,66.73 2.57,66.48 -0.15,66.24 -3.12,64.16 -6.09,62.08 -6.48,59.20 -6.87,56.32 -6.63,53.75 -6.40,51.18 -6.32,48.53 -6.23,45.89 -6.17,42.99 -6.10,40.09 -5.99,37.27 -5.89,34.45 -6.03,30.46 -6.16,26.47 -6.14,23.09 -6.11,19.70 -6.01,16.40 -5.90,13.11 -5.73,9.27 -5.56,5.44 -5.02,2.32 -4.48,-0.78 -4.32,-1.31 -4.16,-1.83 -3.88,-2.30 -3.60,-2.77 -3.21,-3.16 -2.83,-3.56 -2.36,-3.84 -1.89,-4.13 -1.37,-4.30 -0.85,-4.46 -0.30,-4.50 0.24,-4.54 0.78,-4.44 1.32,-4.35 1.82,-4.13 2.32,-3.91 2.75,-3.57 3.19,-3.24 3.53,-2.81 3.87,-2.38 4.10,-1.88 4.33,-1.38 4.43,-0.84 4.54,-0.30 4.51,0.23 4.48,0.78 4.48,0.78 L 4.48,0.78 Z"></path></g><g transform="translate(279.2388728060766 166.2242502455203) rotate(5.44033203100553 19.448717948717928 26.07258064516128)" stroke="none"><path fill="#e06458" d="M 4.86,0 Q 4.86,0 4.83,3.11 4.80,6.22 4.74,9.52 4.68,12.83 4.48,15.37 4.28,17.91 3.56,21.09 2.85,24.26 2.51,27.43 2.18,30.59 1.82,33.39 1.47,36.18 0.74,38.81 0.02,41.44 -1.04,44.72 -2.10,48.00 -2.41,49.48 -2.72,50.97 -3.08,51.52 -3.44,52.08 -3.93,52.54 -4.41,52.99 -4.99,53.32 -5.57,53.65 -6.21,53.82 -6.85,54.00 -7.51,54.02 -8.18,54.04 -8.83,53.90 -9.48,53.76 -10.07,53.47 -10.67,53.18 -11.18,52.76 -11.69,52.33 -12.09,51.80 -12.48,51.26 -12.73,50.65 -12.99,50.03 -13.09,49.38 -13.19,48.72 -13.13,48.06 -13.07,47.40 -12.85,46.77 -12.63,46.14 -10.19,43.05 -7.75,39.96 -4.24,36.07 -0.73,32.19 2.06,29.65 4.85,27.11 6.70,24.96 8.55,22.81 10.34,21.02 12.13,19.23 14.93,16.53 17.73,13.82 21.52,13.65 25.30,13.47 27.21,15.98 29.12,18.50 29.38,21.18 29.63,23.87 29.64,26.07 29.65,28.28 29.32,31.20 28.98,34.12 28.88,37.82 28.78,41.51 28.75,43.72 28.72,45.92 28.71,48.04 28.69,50.17 27.43,48.00 26.17,45.84 28.23,45.21 30.30,44.59 33.83,42.69 37.36,40.79 40.52,37.94 43.67,35.08 44.61,34.62 45.55,34.16 46.58,34.02 47.62,33.88 48.64,34.08 49.67,34.28 50.58,34.79 51.49,35.31 52.18,36.09 52.88,36.87 53.29,37.83 53.70,38.79 53.78,39.83 53.87,40.87 53.61,41.88 53.36,42.90 52.79,43.78 52.23,44.66 51.41,45.31 50.60,45.96 49.62,46.32 48.64,46.68 47.59,46.70 46.55,46.73 45.55,46.42 44.55,46.11 43.70,45.50 42.86,44.89 42.25,44.04 41.64,43.19 41.34,42.19 41.03,41.19 41.06,40.15 41.09,39.10 41.45,38.12 41.82,37.14 42.47,36.33 43.13,35.52 44.01,34.96 44.89,34.40 45.91,34.15 46.92,33.90 47.96,33.98 49.00,34.07 49.96,34.49 50.92,34.90 51.70,35.60 52.47,36.30 52.98,37.21 53.50,38.12 53.69,39.15 53.89,40.17 53.74,41.21 53.60,42.24 53.13,43.18 52.67,44.11 51.93,44.85 51.19,45.59 51.19,45.59 51.19,45.59 50.42,46.00 49.64,46.42 48.03,48.11 46.43,49.80 43.17,51.70 39.91,53.60 37.12,55.26 34.34,56.93 31.04,57.70 27.74,58.47 25.42,58.21 23.10,57.95 21.10,56.81 19.11,55.67 17.98,53.51 16.85,51.36 16.86,48.59 16.87,45.81 16.88,43.52 16.90,41.22 17.12,37.07 17.34,32.93 17.54,30.63 17.74,28.33 17.81,24.48 17.89,20.64 20.08,22.13 22.28,23.62 19.17,26.41 16.05,29.20 14.01,31.62 11.97,34.05 9.47,36.94 6.97,39.83 5.05,41.93 3.13,44.04 0.20,47.50 -2.72,50.97 -3.08,51.52 -3.44,52.08 -3.93,52.54 -4.41,52.99 -4.99,53.32 -5.57,53.65 -6.21,53.82 -6.85,54.00 -7.51,54.02 -8.18,54.04 -8.83,53.90 -9.48,53.76 -10.07,53.47 -10.67,53.18 -11.18,52.76 -11.69,52.33 -12.09,51.80 -12.48,51.26 -12.73,50.65 -12.99,50.03 -13.09,49.38 -13.19,48.72 -13.13,48.06 -13.07,47.40 -12.85,46.77 -12.63,46.14 -12.70,46.00 -12.77,45.87 -11.70,43.94 -10.62,42.02 -9.26,38.39 -7.90,34.76 -7.47,32.31 -7.04,29.85 -6.81,26.00 -6.58,22.15 -5.63,17.48 -4.68,12.82 -4.74,9.52 -4.80,6.22 -4.83,3.11 -4.86,0 -4.79,-0.58 -4.72,-1.16 -4.51,-1.71 -4.30,-2.26 -3.97,-2.74 -3.64,-3.22 -3.20,-3.61 -2.76,-4.00 -2.24,-4.27 -1.72,-4.54 -1.15,-4.68 -0.58,-4.82 0.00,-4.82 0.58,-4.82 1.15,-4.68 1.72,-4.54 2.24,-4.27 2.76,-4.00 3.20,-3.61 3.64,-3.22 3.97,-2.74 4.30,-2.26 4.51,-1.71 4.72,-1.16 4.79,-0.58 4.86,0.00 4.86,0.00 L 4.86,0 Z"></path></g><g transform="translate(326.08583752408475 200.26497972065647) rotate(5.44033203100553 19.923076923076962 0.49193548387094665)" stroke="none"><path fill="#e06458" d="M 0,-5.30 Q 0,-5.30 2.18,-5.35 4.36,-5.40 6.87,-5.39 9.39,-5.38 11.69,-6.62 14.00,-7.86 16.14,-9.52 18.28,-11.19 18.80,-13.57 19.31,-15.96 16.63,-14.97 13.95,-13.99 11.46,-12.82 8.97,-11.64 7.35,-9.19 5.73,-6.75 4.49,-3.77 3.24,-0.79 3.02,1.65 2.79,4.10 2.73,7.14 2.67,10.17 3.41,12.19 4.16,14.20 7.29,14.39 10.43,14.57 13.58,14.77 16.73,14.96 19.23,15.09 21.72,15.22 23.95,14.66 26.17,14.10 28.98,12.83 31.79,11.56 34.08,9.87 36.37,8.17 37.40,6.28 38.43,4.39 39.13,3.65 39.82,2.91 40.71,2.43 41.60,1.95 42.59,1.78 43.59,1.61 44.59,1.77 45.59,1.93 46.49,2.39 47.39,2.86 48.09,3.59 48.79,4.32 49.22,5.24 49.65,6.15 49.77,7.16 49.88,8.16 49.67,9.15 49.46,10.14 48.95,11.01 48.43,11.88 47.66,12.54 46.90,13.20 45.96,13.58 45.02,13.96 44.01,14.03 43.00,14.09 42.03,13.82 41.05,13.56 40.21,13.00 39.37,12.44 38.75,11.63 38.13,10.83 37.80,9.88 37.47,8.92 37.46,7.91 37.46,6.90 37.77,5.94 38.09,4.97 38.70,4.16 39.30,3.35 40.14,2.78 40.97,2.21 41.94,1.93 42.92,1.65 43.93,1.70 44.94,1.75 45.88,2.12 46.82,2.49 47.60,3.13 48.38,3.78 48.90,4.65 49.43,5.51 49.65,6.50 49.88,7.49 49.78,8.49 49.67,9.50 49.25,10.42 48.84,11.34 48.84,11.34 48.84,11.34 45.22,15.47 41.60,19.60 39.54,21.00 37.48,22.39 35.46,23.38 33.45,24.38 31.42,25.06 29.39,25.75 25.55,26.86 21.72,27.97 17.13,27.97 12.54,27.96 8.45,27.41 4.37,26.85 0.45,25.41 -3.46,23.97 -5.40,22.02 -7.34,20.08 -8.47,17.05 -9.59,14.02 -9.84,10.80 -10.08,7.58 -9.86,3.46 -9.64,-0.65 -9.19,-2.85 -8.75,-5.04 -7.90,-7.41 -7.05,-9.78 -4.71,-13.56 -2.37,-17.34 -0.12,-20.09 2.13,-22.84 4.53,-24.21 6.93,-25.57 10.54,-26.41 14.16,-27.25 16.44,-27.10 18.72,-26.95 20.81,-26.38 22.90,-25.80 25.15,-24.94 27.41,-24.08 29.47,-20.59 31.53,-17.10 31.07,-13.91 30.60,-10.72 29.67,-8.42 28.74,-6.13 26.91,-3.93 25.09,-1.73 21.87,0.31 18.66,2.37 16.61,3.23 14.57,4.09 12.08,4.74 9.58,5.38 6.97,5.39 4.36,5.40 2.18,5.35 0,5.30 -0.63,5.23 -1.27,5.15 -1.86,4.92 -2.46,4.70 -2.99,4.33 -3.52,3.97 -3.94,3.49 -4.36,3.01 -4.66,2.44 -4.96,1.88 -5.11,1.26 -5.27,0.63 -5.27,-0.00 -5.27,-0.64 -5.11,-1.26 -4.96,-1.88 -4.66,-2.44 -4.36,-3.01 -3.94,-3.49 -3.52,-3.97 -2.99,-4.33 -2.46,-4.70 -1.86,-4.92 -1.27,-5.15 -0.63,-5.23 0.00,-5.30 0.00,-5.30 L 0,-5.30 Z"></path></g><g transform="translate(407.5231330207579 192.9200407549343) rotate(353.806095032849 25.090206185567013 2.1907216494845443)" stroke="none"><path fill="#e06458" d="M 1.45,-4.52 Q 1.45,-4.52 3.82,-3.83 6.20,-3.13 9.92,-2.34 13.64,-1.55 17.47,-1.35 21.31,-1.15 24.07,-1.07 26.84,-0.98 30.66,-0.73 34.47,-0.48 37.42,-0.47 40.36,-0.46 43.18,-0.47 46.00,-0.48 48.09,-0.57 50.18,-0.65 50.99,-0.52 51.79,-0.38 52.51,-0.00 53.23,0.37 53.79,0.96 54.35,1.56 54.69,2.30 55.03,3.04 55.12,3.85 55.20,4.66 55.03,5.45 54.85,6.25 54.43,6.94 54.01,7.64 53.39,8.17 52.77,8.70 52.01,9.00 51.25,9.30 50.44,9.34 49.62,9.38 48.84,9.16 48.05,8.94 47.38,8.49 46.71,8.03 46.21,7.38 45.72,6.73 45.46,5.96 45.20,5.18 45.21,4.37 45.21,3.55 45.47,2.78 45.73,2.01 46.22,1.36 46.72,0.71 47.39,0.26 48.07,-0.19 48.85,-0.40 49.64,-0.62 50.45,-0.58 51.27,-0.53 52.02,-0.23 52.78,0.07 53.40,0.59 54.02,1.12 54.44,1.82 54.86,2.52 55.03,3.32 55.20,4.11 55.12,4.92 55.03,5.73 54.68,6.47 54.34,7.21 53.78,7.80 53.22,8.39 52.50,8.77 51.78,9.15 50.97,9.28 50.17,9.41 50.17,9.41 50.17,9.41 48.08,9.32 45.99,9.24 43.16,9.22 40.33,9.20 37.37,9.19 34.42,9.18 30.54,9.39 26.66,9.60 21.68,9.39 16.69,9.18 13.74,8.80 10.79,8.42 7.01,7.29 3.23,6.16 0.89,5.34 -1.45,4.52 -1.97,4.29 -2.49,4.05 -2.94,3.69 -3.38,3.33 -3.73,2.88 -4.08,2.42 -4.32,1.90 -4.55,1.37 -4.65,0.81 -4.74,0.25 -4.71,-0.32 -4.67,-0.89 -4.49,-1.43 -4.32,-1.98 -4.02,-2.47 -3.72,-2.96 -3.31,-3.36 -2.90,-3.76 -2.41,-4.05 -1.91,-4.35 -1.36,-4.51 -0.82,-4.68 -0.24,-4.71 0.32,-4.74 0.88,-4.63 1.45,-4.52 1.45,-4.52 L 1.45,-4.52 Z"></path></g><g transform="translate(451.00248570346196 173.30090316734186) rotate(353.806095032849 -6.842783505154671 26.726804123711332)" stroke="none"><path fill="#e06458" d="M 2.69,4.01 Q 2.69,4.01 0.05,5.74 -2.58,7.48 -5.33,10.55 -8.07,13.62 -10.17,16.43 -12.27,19.25 -14.86,23.50 -17.44,27.75 -18.38,30.15 -19.31,32.54 -20.10,36.14 -20.88,39.73 -21.58,42.26 -22.27,44.80 -22.42,47.28 -22.56,49.77 -20.33,48.46 -18.09,47.15 -15.51,47.38 -12.92,47.61 -8.97,48.01 -5.03,48.41 -1.48,48.57 2.05,48.73 5.65,47.82 9.24,46.91 10.85,46.07 12.46,45.22 13.27,45.00 14.08,44.79 14.91,44.84 15.75,44.89 16.53,45.21 17.30,45.53 17.94,46.07 18.57,46.62 19.00,47.34 19.42,48.07 19.60,48.89 19.77,49.71 19.67,50.54 19.57,51.37 19.22,52.13 18.86,52.89 18.28,53.49 17.69,54.10 16.95,54.48 16.21,54.87 15.38,55.00 14.55,55.13 13.72,54.98 12.90,54.84 12.16,54.44 11.42,54.04 10.85,53.43 10.28,52.81 9.93,52.05 9.59,51.29 9.50,50.45 9.42,49.62 9.61,48.80 9.80,47.98 10.23,47.27 10.67,46.55 11.32,46.02 11.96,45.48 12.74,45.18 13.52,44.87 14.36,44.84 15.20,44.80 16.00,45.03 16.81,45.26 17.50,45.74 18.19,46.21 18.69,46.88 19.19,47.56 19.45,48.35 19.71,49.15 19.71,49.99 19.70,50.83 19.42,51.62 19.15,52.41 18.64,53.07 18.12,53.74 17.43,54.20 16.73,54.67 16.73,54.66 16.73,54.66 14.42,55.59 12.12,56.51 9.62,57.12 7.13,57.73 4.55,57.90 1.97,58.06 -1.63,58.15 -5.23,58.24 -9.46,58.47 -13.69,58.70 -16.77,58.54 -19.85,58.38 -23.35,57.89 -26.84,57.39 -29.39,55.76 -31.94,54.12 -32.89,51.83 -33.84,49.55 -33.49,46.94 -33.14,44.33 -32.10,41.24 -31.07,38.15 -30.54,35.56 -30.01,32.96 -29.15,30.94 -28.29,28.93 -26.88,25.49 -25.46,22.05 -24.04,20.17 -22.61,18.29 -21.29,16.13 -19.97,13.96 -17.96,10.79 -15.95,7.63 -13.76,4.88 -11.56,2.12 -9.73,0.85 -7.90,-0.42 -5.30,-2.22 -2.69,-4.01 -2.17,-4.27 -1.66,-4.54 -1.09,-4.67 -0.52,-4.80 0.05,-4.80 0.64,-4.79 1.20,-4.64 1.77,-4.50 2.28,-4.22 2.79,-3.94 3.22,-3.55 3.66,-3.16 3.98,-2.67 4.31,-2.19 4.51,-1.64 4.71,-1.09 4.77,-0.52 4.83,0.05 4.76,0.63 4.68,1.21 4.46,1.75 4.25,2.30 3.91,2.77 3.58,3.25 3.14,3.63 2.69,4.01 2.69,4.01 L 2.69,4.01 Z"></path></g><g transform="translate(489.7475667534744 176.78371697435318) rotate(353.806095032849 19.615979381443253 23.659793814432987)" stroke="none"><path fill="#e06458" d="M 4.64,0.64 Q 4.64,0.64 3.97,4.40 3.29,8.16 2.88,10.68 2.47,13.20 1.74,16.11 1.01,19.01 -1.25,23.25 -3.52,27.48 -5.15,30.52 -6.78,33.55 -7.87,35.84 -8.97,38.14 -10.13,41.32 -11.29,44.51 -11.72,45.52 -12.14,46.54 -12.50,47.03 -12.85,47.53 -13.31,47.92 -13.77,48.32 -14.31,48.59 -14.85,48.87 -15.44,49.01 -16.03,49.14 -16.64,49.13 -17.25,49.13 -17.84,48.97 -18.42,48.82 -18.96,48.53 -19.49,48.24 -19.94,47.83 -20.39,47.42 -20.73,46.92 -21.07,46.41 -21.27,45.84 -21.48,45.27 -21.54,44.67 -21.61,44.06 -21.53,43.46 -21.45,42.86 -21.22,42.29 -21.00,41.73 -19.07,39.06 -17.15,36.40 -13.36,33.51 -9.56,30.62 -6.41,28.39 -3.25,26.17 1.18,23.78 5.62,21.38 10.46,19.16 15.30,16.93 18.08,15.56 20.86,14.18 23.50,13.19 26.15,12.21 30.42,12.63 34.70,13.06 36.13,16.04 37.56,19.03 37.44,21.52 37.32,24.01 36.66,27.63 36.00,31.24 35.61,33.34 35.23,35.45 35.14,38.03 35.05,40.61 35.16,43.30 35.28,45.98 34.16,43.86 33.05,41.74 36.57,41.73 40.09,41.73 42.43,41.59 44.77,41.45 47.05,41.16 49.33,40.88 52.27,40.18 55.21,39.48 56.22,39.43 57.23,39.37 58.20,39.64 59.17,39.91 60.00,40.47 60.84,41.04 61.45,41.84 62.06,42.64 62.38,43.59 62.70,44.55 62.71,45.55 62.71,46.56 62.39,47.52 62.07,48.47 61.46,49.27 60.85,50.08 60.02,50.64 59.18,51.21 58.21,51.48 57.24,51.75 56.24,51.70 55.23,51.64 54.30,51.27 53.36,50.90 52.59,50.25 51.82,49.60 51.30,48.74 50.78,47.87 50.56,46.89 50.35,45.91 50.45,44.91 50.56,43.90 50.98,42.99 51.40,42.08 52.10,41.34 52.79,40.61 53.68,40.14 54.57,39.67 55.56,39.50 56.55,39.34 57.55,39.50 58.54,39.66 59.43,40.13 60.32,40.60 61.02,41.33 61.71,42.06 62.13,42.98 62.56,43.89 62.67,44.89 62.78,45.89 62.56,46.88 62.35,47.86 61.83,48.72 61.31,49.59 60.54,50.24 59.78,50.89 58.84,51.27 57.91,51.64 57.91,51.64 57.91,51.64 54.51,52.35 51.12,53.05 48.53,53.48 45.94,53.91 41.03,54.27 36.11,54.63 33.89,54.48 31.66,54.34 28.04,52.32 24.42,50.31 23.79,47.46 23.16,44.61 23.36,42.24 23.57,39.87 24.00,36.60 24.44,33.33 25.41,29.38 26.37,25.43 27.45,22.65 28.53,19.87 26.21,20.43 23.88,20.99 21.13,22.08 18.39,23.16 13.93,25.54 9.47,27.91 5.61,30.42 1.75,32.93 -1.03,35.12 -3.83,37.31 -6.64,40.08 -9.45,42.85 -10.79,44.69 -12.14,46.54 -12.49,47.03 -12.85,47.53 -13.31,47.92 -13.77,48.32 -14.31,48.59 -14.85,48.87 -15.44,49.01 -16.03,49.14 -16.64,49.13 -17.25,49.13 -17.84,48.97 -18.42,48.82 -18.96,48.53 -19.49,48.24 -19.94,47.83 -20.39,47.42 -20.73,46.92 -21.06,46.41 -21.27,45.84 -21.48,45.27 -21.54,44.67 -21.61,44.06 -21.53,43.46 -21.45,42.86 -21.22,42.29 -21.00,41.73 -19.82,40.03 -18.65,38.34 -17.66,36.19 -16.67,34.05 -15.37,31.83 -14.06,29.61 -12.52,26.77 -10.97,23.93 -9.47,20.27 -7.97,16.61 -7.24,13.98 -6.51,11.35 -5.95,9.15 -5.39,6.95 -5.02,3.15 -4.64,-0.64 -4.50,-1.19 -4.35,-1.73 -4.08,-2.23 -3.81,-2.73 -3.43,-3.14 -3.05,-3.56 -2.58,-3.87 -2.10,-4.19 -1.57,-4.38 -1.04,-4.57 -0.48,-4.63 0.08,-4.69 0.64,-4.61 1.20,-4.53 1.72,-4.32 2.25,-4.11 2.71,-3.78 3.17,-3.45 3.54,-3.02 3.90,-2.59 4.16,-2.09 4.41,-1.58 4.54,-1.03 4.66,-0.48 4.65,0.08 4.64,0.64 4.64,0.64 L 4.64,0.64 Z"></path></g><g transform="translate(548.1884223166383 207.69866165303637) rotate(353.806095032849 24.177835051546367 -1.7525773195876297)" stroke="none"><path fill="#e06458" d="M 0.52,-4.94 Q 0.52,-4.94 2.89,-4.75 5.26,-4.55 7.42,-4.51 9.59,-4.46 12.33,-4.40 15.07,-4.34 17.30,-4.38 19.53,-4.41 23.09,-4.24 26.65,-4.07 29.74,-4.03 32.83,-3.99 35.34,-4.56 37.86,-5.12 36.18,-7.84 34.51,-10.56 30.91,-11.99 27.30,-13.41 24.87,-13.62 22.44,-13.83 19.43,-13.85 16.42,-13.87 14.44,-13.09 12.46,-12.31 10.63,-9.86 8.80,-7.41 7.90,-4.48 7.00,-1.56 6.34,1.05 5.69,3.67 5.48,5.99 5.26,8.31 7.52,8.07 9.77,7.82 11.95,8.29 14.12,8.76 18.24,9.32 22.35,9.88 25.69,9.99 29.03,10.11 31.37,10.07 33.72,10.04 35.91,9.54 38.11,9.04 40.00,7.65 41.88,6.27 43.27,5.43 44.67,4.59 45.60,3.99 46.52,3.38 47.59,3.11 48.66,2.84 49.76,2.92 50.86,3.00 51.88,3.43 52.90,3.86 53.72,4.59 54.55,5.32 55.10,6.28 55.65,7.24 55.87,8.32 56.08,9.40 55.94,10.50 55.80,11.59 55.32,12.58 54.83,13.58 54.06,14.36 53.28,15.15 52.30,15.65 51.31,16.14 50.22,16.30 49.13,16.46 48.04,16.26 46.95,16.06 45.99,15.52 45.02,14.98 44.28,14.17 43.54,13.35 43.10,12.34 42.65,11.33 42.56,10.23 42.46,9.13 42.72,8.05 42.98,6.98 43.56,6.05 44.15,5.11 45.01,4.41 45.86,3.72 46.90,3.33 47.93,2.94 49.03,2.90 50.14,2.87 51.20,3.18 52.25,3.50 53.15,4.14 54.06,4.78 54.71,5.67 55.36,6.56 55.69,7.61 56.02,8.67 56.00,9.77 55.97,10.87 55.60,11.91 55.23,12.95 54.54,13.82 53.85,14.68 53.85,14.68 53.86,14.68 51.40,16.40 48.94,18.12 46.81,19.16 44.68,20.21 41.30,21.43 37.91,22.66 35.80,22.95 33.69,23.23 31.25,23.17 28.80,23.11 26.24,22.96 23.69,22.80 20.07,22.35 16.46,21.89 14.11,21.68 11.76,21.48 9.24,21.08 6.71,20.67 4.53,20.15 2.36,19.63 -1.27,17.15 -4.91,14.67 -5.97,12.40 -7.03,10.14 -7.08,7.03 -7.14,3.93 -6.59,0.96 -6.03,-2.00 -4.69,-5.89 -3.35,-9.78 -2.29,-12.41 -1.22,-15.05 0.15,-16.84 1.52,-18.62 3.55,-20.86 5.57,-23.09 7.44,-24.12 9.32,-25.16 12.98,-25.76 16.64,-26.36 19.97,-26.22 23.29,-26.09 25.63,-25.88 27.98,-25.67 31.35,-24.59 34.72,-23.51 39.38,-20.65 44.04,-17.78 45.73,-15.29 47.43,-12.79 47.98,-9.34 48.53,-5.89 47.64,-2.69 46.75,0.49 43.87,2.67 40.99,4.86 36.91,5.30 32.82,5.74 29.72,5.77 26.63,5.80 23.03,5.95 19.44,6.10 17.17,6.03 14.90,5.96 12.00,5.93 9.11,5.90 6.64,5.73 4.18,5.56 1.82,5.25 -0.52,4.94 -1.11,4.81 -1.69,4.67 -2.23,4.40 -2.76,4.13 -3.22,3.74 -3.67,3.35 -4.02,2.86 -4.37,2.37 -4.59,1.81 -4.81,1.26 -4.89,0.66 -4.97,0.07 -4.91,-0.52 -4.84,-1.12 -4.64,-1.68 -4.43,-2.24 -4.10,-2.74 -3.77,-3.24 -3.32,-3.65 -2.88,-4.05 -2.35,-4.34 -1.83,-4.62 -1.25,-4.77 -0.67,-4.93 -0.07,-4.94 0.52,-4.94 0.52,-4.94 L 0.52,-4.94 Z"></path></g><g transform="translate(606.7187361357417 186.81342605754725) rotate(353.806095032849 78.9201030927835 22.744528637835913)" stroke="none"><path fill="#e06458" d="M 0,-5.25 Q 0,-5.25 2.10,-5.30 4.21,-5.36 8.18,-4.03 12.15,-2.70 14.08,-0.66 16.02,1.36 16.73,4.16 17.44,6.95 17.67,10.49 17.90,14.04 17.86,16.68 17.82,19.33 17.82,21.51 17.83,23.69 17.82,25.96 17.81,28.23 13.44,27.56 9.07,26.88 12.66,22.97 16.25,19.05 18.47,17.15 20.68,15.24 23.53,13.01 26.37,10.78 29.43,8.00 32.49,5.22 34.33,4.06 36.17,2.91 38.93,2.46 41.69,2.01 43.77,2.73 45.86,3.44 47.26,6.76 48.67,10.08 48.52,13.78 48.36,17.48 47.98,19.67 47.59,21.86 47.12,24.39 46.65,26.92 46.05,29.75 45.44,32.58 42.72,29.71 40.01,26.84 42.13,24.63 44.25,22.42 47.04,19.53 49.84,16.64 52.30,14.08 54.77,11.52 56.12,9.72 57.47,7.93 61.89,7.42 66.31,6.91 68.55,9.11 70.79,11.30 71.27,14.08 71.75,16.86 71.98,20.52 72.21,24.19 73.04,27.92 73.88,31.65 76.12,30.91 78.37,30.18 80.80,30.17 83.23,30.16 85.48,29.96 87.74,29.75 90.39,29.21 93.04,28.66 95.36,27.55 97.67,26.43 100.53,24.99 103.40,23.55 105.03,22.07 106.67,20.59 106.49,18.06 106.32,15.53 104.55,17.33 102.77,19.14 100.14,21.97 97.51,24.81 96.64,27.28 95.76,29.74 94.76,32.22 93.76,34.70 93.66,37.22 93.56,39.74 92.53,37.64 91.50,35.54 95.00,36.40 98.50,37.26 101.79,37.72 105.07,38.19 108.70,38.54 112.32,38.88 118.57,39.28 124.83,39.68 132.03,40.25 139.24,40.82 143.81,41.15 148.39,41.49 151.12,41.42 153.85,41.35 155.88,41.23 157.92,41.12 158.61,41.25 159.30,41.38 159.92,41.72 160.54,42.06 161.01,42.58 161.49,43.10 161.78,43.75 162.06,44.39 162.12,45.10 162.19,45.80 162.02,46.49 161.86,47.17 161.48,47.77 161.11,48.37 160.56,48.82 160.01,49.26 159.35,49.51 158.69,49.76 157.99,49.79 157.28,49.81 156.61,49.61 155.93,49.41 155.35,49.00 154.78,48.59 154.36,48.03 153.94,47.46 153.73,46.78 153.52,46.11 153.53,45.40 153.54,44.70 153.78,44.03 154.02,43.37 154.46,42.82 154.89,42.26 155.49,41.88 156.08,41.49 156.76,41.32 157.44,41.14 158.15,41.19 158.85,41.24 159.50,41.52 160.15,41.79 160.68,42.26 161.21,42.72 161.56,43.33 161.92,43.95 162.06,44.64 162.19,45.33 162.11,46.03 162.02,46.73 161.71,47.36 161.40,48.00 160.90,48.50 160.41,49.01 159.78,49.32 159.15,49.64 158.45,49.74 157.75,49.85 157.75,49.85 157.75,49.85 155.73,49.66 153.70,49.47 150.95,49.30 148.19,49.13 143.55,49.22 138.91,49.32 131.84,49.32 124.78,49.33 118.43,49.67 112.09,50.00 108.29,50.20 104.50,50.39 100.19,50.50 95.89,50.61 92.46,49.89 89.03,49.18 86.24,48.13 83.45,47.09 81.91,44.61 80.36,42.14 80.16,39.82 79.95,37.50 80.27,34.55 80.58,31.60 81.22,29.38 81.85,27.16 83.16,24.20 84.46,21.24 85.92,18.30 87.38,15.37 89.64,12.91 91.90,10.45 93.67,8.74 95.43,7.04 97.95,6.07 100.46,5.11 102.81,5.09 105.15,5.06 108.79,5.54 112.43,6.02 114.83,7.54 117.24,9.06 118.58,11.81 119.91,14.57 119.93,16.92 119.95,19.28 119.67,21.45 119.40,23.62 117.38,27.43 115.35,31.24 112.70,33.25 110.04,35.26 107.94,36.50 105.84,37.74 102.73,39.16 99.61,40.58 97.39,41.47 95.16,42.36 92.61,42.90 90.05,43.44 86.63,43.76 83.21,44.09 80.01,44.06 76.81,44.02 74.08,43.93 71.34,43.84 69.21,43.27 67.08,42.70 65.15,41.26 63.22,39.83 61.94,36.61 60.66,33.38 60.18,31.21 59.69,29.04 59.30,25.28 58.92,21.53 59.92,18.90 60.92,16.28 63.78,16.39 66.64,16.51 65.15,18.36 63.66,20.22 61.15,22.73 58.65,25.24 57.11,26.86 55.57,28.47 53.09,30.97 50.61,33.47 47.65,35.18 44.68,36.89 42.18,37.35 39.68,37.80 37.52,36.59 35.35,35.37 35.11,30.17 34.87,24.98 35.23,22.42 35.59,19.87 37.43,16.73 39.26,13.59 36.19,16.05 33.12,18.50 30.54,21.01 27.96,23.52 26.05,25.24 24.14,26.96 21.85,29.50 19.55,32.05 16.88,33.99 14.20,35.94 10.57,34.87 6.93,33.80 6.41,31.01 5.89,28.22 5.88,25.97 5.86,23.73 5.85,21.57 5.84,19.41 5.76,15.28 5.67,11.15 4.92,8.25 4.17,5.36 2.08,5.30 0,5.25 -0.62,5.17 -1.25,5.10 -1.84,4.87 -2.44,4.65 -2.96,4.29 -3.48,3.93 -3.90,3.45 -4.32,2.98 -4.61,2.42 -4.91,1.86 -5.06,1.24 -5.21,0.63 -5.21,-0.00 -5.21,-0.63 -5.06,-1.24 -4.91,-1.86 -4.61,-2.42 -4.32,-2.98 -3.90,-3.45 -3.48,-3.93 -2.96,-4.29 -2.44,-4.65 -1.84,-4.87 -1.25,-5.10 -0.62,-5.17 0.00,-5.25 0.00,-5.25 L 0,-5.25 Z"></path></g><g transform="translate(548 35) rotate(0 22 -0.5)" stroke="none"><path fill="#e06458" d="M 0,-5.27 Q 0,-5.27 2.01,-5.33 4.02,-5.39 7.91,-5.49 11.79,-5.59 15.40,-5.92 19.01,-6.25 21.60,-6.38 24.20,-6.52 27.83,-6.69 31.47,-6.85 34.71,-6.94 37.96,-7.03 40.98,-7.08 43.99,-7.13 44.97,-6.97 45.95,-6.81 46.82,-6.34 47.70,-5.88 48.38,-5.16 49.07,-4.44 49.48,-3.54 49.90,-2.64 50.01,-1.65 50.12,-0.67 49.90,0.29 49.69,1.26 49.18,2.11 48.67,2.96 47.92,3.60 47.16,4.25 46.24,4.61 45.32,4.98 44.33,5.04 43.34,5.09 42.38,4.83 41.43,4.56 40.60,4.01 39.78,3.45 39.18,2.66 38.58,1.87 38.26,0.93 37.95,-0.00 37.95,-0.99 37.94,-1.98 38.26,-2.92 38.58,-3.86 39.18,-4.65 39.78,-5.44 40.60,-6.00 41.42,-6.56 42.37,-6.82 43.33,-7.09 44.32,-7.04 45.31,-6.98 46.23,-6.62 47.15,-6.25 47.91,-5.61 48.66,-4.97 49.18,-4.12 49.69,-3.27 49.90,-2.30 50.12,-1.33 50.01,-0.35 49.90,0.63 49.49,1.53 49.07,2.43 48.39,3.15 47.71,3.87 46.83,4.34 45.96,4.80 44.98,4.96 44.00,5.13 44.00,5.13 44.00,5.13 41.00,5.08 38.00,5.04 34.81,4.98 31.62,4.91 28.20,4.90 24.78,4.88 22.64,4.99 20.49,5.10 16.14,5.34 11.79,5.59 7.91,5.49 4.02,5.39 2.01,5.33 0,5.27 -0.63,5.19 -1.26,5.11 -1.85,4.89 -2.44,4.66 -2.97,4.30 -3.49,3.94 -3.91,3.46 -4.33,2.99 -4.63,2.43 -4.92,1.86 -5.08,1.25 -5.23,0.63 -5.23,-0.00 -5.23,-0.63 -5.08,-1.25 -4.92,-1.86 -4.63,-2.43 -4.33,-2.99 -3.91,-3.46 -3.49,-3.94 -2.97,-4.30 -2.44,-4.66 -1.85,-4.89 -1.26,-5.11 -0.63,-5.19 0.00,-5.27 0.00,-5.27 L 0,-5.27 Z"></path></g><g transform="translate(578 10) rotate(0 -9 27.5)" stroke="none"><path fill="#e06458" d="M 4.10,2.28 Q 4.10,2.28 2.67,4.87 1.24,7.46 -0.27,9.88 -1.80,12.30 -4.00,15.26 -6.20,18.21 -8.99,21.89 -11.79,25.58 -13.02,27.97 -14.24,30.36 -15.66,32.93 -17.08,35.49 -18.66,39.33 -20.25,43.17 -20.42,45.47 -20.58,47.77 -17.37,48.33 -14.17,48.89 -10.37,48.87 -6.57,48.86 -2.75,48.37 1.06,47.88 3.49,46.87 5.93,45.87 6.96,45.70 7.99,45.53 9.02,45.70 10.06,45.87 10.98,46.36 11.90,46.85 12.62,47.61 13.34,48.37 13.78,49.31 14.22,50.26 14.34,51.30 14.45,52.34 14.22,53.36 14.00,54.39 13.46,55.28 12.92,56.18 12.13,56.85 11.33,57.53 10.36,57.92 9.39,58.31 8.34,58.36 7.30,58.42 6.29,58.14 5.28,57.86 4.42,57.27 3.55,56.69 2.92,55.86 2.29,55.02 1.95,54.03 1.62,53.04 1.62,52.00 1.62,50.95 1.95,49.96 2.28,48.97 2.92,48.14 3.55,47.30 4.41,46.72 5.28,46.13 6.29,45.85 7.29,45.57 8.34,45.63 9.38,45.68 10.35,46.07 11.33,46.46 12.12,47.13 12.92,47.81 13.46,48.71 14.00,49.60 14.22,50.62 14.45,51.64 14.34,52.68 14.22,53.72 13.78,54.67 13.34,55.62 12.63,56.38 11.91,57.14 10.98,57.63 10.06,58.12 10.06,58.12 10.06,58.12 6.08,59.30 2.11,60.47 -0.89,60.84 -3.90,61.20 -6.99,61.14 -10.08,61.07 -13.70,61.01 -17.31,60.96 -19.66,60.93 -22.00,60.90 -25.05,60.06 -28.10,59.23 -29.37,57.43 -30.65,55.64 -30.93,51.96 -31.22,48.29 -30.74,45.80 -30.27,43.32 -29.58,41.16 -28.90,39.00 -27.86,37.10 -26.82,35.19 -25.72,33.15 -24.61,31.11 -23.12,28.68 -21.63,26.24 -20.07,23.64 -18.51,21.03 -16.10,17.02 -13.69,13.00 -11.76,10.02 -9.84,7.04 -8.42,4.96 -6.99,2.88 -5.55,0.30 -4.10,-2.28 -3.77,-2.74 -3.44,-3.19 -3.00,-3.56 -2.57,-3.92 -2.06,-4.18 -1.56,-4.43 -1.00,-4.55 -0.45,-4.67 0.11,-4.66 0.67,-4.65 1.22,-4.50 1.77,-4.35 2.26,-4.07 2.76,-3.80 3.17,-3.41 3.59,-3.03 3.90,-2.55 4.21,-2.08 4.39,-1.54 4.58,-1.01 4.64,-0.45 4.69,0.11 4.61,0.67 4.53,1.23 4.32,1.75 4.10,2.28 4.10,2.28 L 4.10,2.28 Z"></path></g><g transform="translate(447 115) rotate(0 18.5 17.5)" stroke="none"><path fill="#e06458" d="M 5.64,2.81 Q 5.64,2.81 4.23,5.27 2.83,7.73 1.96,10.90 1.10,14.06 0.99,16.39 0.87,18.72 0.88,22.16 0.90,25.60 2.96,27.39 5.03,29.18 7.88,29.34 10.74,29.51 13.12,29.61 15.51,29.71 18.27,29.82 21.03,29.94 23.81,29.27 26.58,28.59 29.05,26.45 31.52,24.31 32.81,22.03 34.09,19.75 34.77,17.46 35.45,15.17 35.54,12.68 35.62,10.19 33.04,9.91 30.46,9.63 28.22,9.42 25.99,9.21 22.94,8.65 19.89,8.08 16.82,6.99 13.75,5.90 7.55,5.62 1.35,5.33 0.53,5.25 -0.28,5.17 -1.04,4.83 -1.79,4.49 -2.40,3.93 -3.00,3.36 -3.40,2.64 -3.80,1.91 -3.94,1.10 -4.08,0.28 -3.95,-0.52 -3.83,-1.34 -3.45,-2.08 -3.07,-2.81 -2.48,-3.39 -1.88,-3.96 -1.14,-4.32 -0.39,-4.67 0.42,-4.77 1.24,-4.87 2.05,-4.70 2.86,-4.53 3.58,-4.11 4.29,-3.69 4.83,-3.07 5.37,-2.44 5.69,-1.68 6.00,-0.91 6.05,-0.09 6.11,0.73 5.89,1.53 5.68,2.33 5.22,3.01 4.77,3.70 4.11,4.21 3.46,4.72 2.68,4.99 1.90,5.26 1.07,5.27 0.25,5.28 -0.53,5.02 -1.32,4.77 -1.98,4.28 -2.64,3.78 -3.11,3.10 -3.59,2.42 -3.81,1.63 -4.04,0.83 -4.01,0.01 -3.97,-0.81 -3.67,-1.58 -3.38,-2.35 -2.85,-2.99 -2.32,-3.62 -1.61,-4.06 -0.91,-4.49 -0.10,-4.68 0.69,-4.86 0.69,-4.86 0.69,-4.86 6.54,-5.56 12.40,-6.27 15.00,-5.77 17.59,-5.27 19.67,-4.58 21.75,-3.89 24.29,-3.60 26.83,-3.32 29.60,-3.19 32.36,-3.07 34.74,-2.81 37.13,-2.54 39.32,-2.23 41.51,-1.91 43.77,-0.32 46.02,1.25 46.98,3.25 47.93,5.25 48.07,8.03 48.21,10.81 47.93,14.08 47.65,17.36 46.31,21.27 44.98,25.19 43.79,27.40 42.60,29.60 39.75,32.53 36.90,35.45 34.58,37.29 32.26,39.13 29.01,40.52 25.77,41.91 23.37,41.96 20.96,42.00 18.14,42.09 15.32,42.17 10.71,42.08 6.11,42.00 1.82,41.08 -2.47,40.17 -5.44,38.13 -8.41,36.09 -9.60,33.68 -10.78,31.27 -10.81,28.38 -10.84,25.49 -10.69,21.78 -10.55,18.07 -10.34,15.72 -10.12,13.37 -9.07,10.19 -8.02,7.02 -7.17,4.84 -6.32,2.66 -4.95,0.15 -3.59,-2.34 -3.21,-2.86 -2.84,-3.37 -2.35,-3.78 -1.86,-4.19 -1.29,-4.47 -0.72,-4.75 -0.09,-4.89 0.52,-5.03 1.16,-5.01 1.79,-4.99 2.41,-4.83 3.02,-4.66 3.58,-4.35 4.14,-4.04 4.60,-3.60 5.07,-3.17 5.42,-2.63 5.77,-2.10 5.98,-1.50 6.19,-0.89 6.25,-0.26 6.31,0.37 6.22,1.00 6.12,1.63 5.88,2.22 5.64,2.81 5.64,2.81 L 5.64,2.81 Z"></path></g><g transform="translate(243.9982206405694 77) rotate(0 -18.862099644128108 33.369863013698634)" stroke="none"><path fill="#e06458" d="M 0,4.84 Q 0,4.84 -2.62,4.88 -5.25,4.92 -8.95,5.82 -12.65,6.73 -15.90,8.15 -19.16,9.56 -22.29,11.03 -25.43,12.50 -29.01,15.03 -32.59,17.55 -34.81,19.34 -37.03,21.13 -38.51,23.90 -40.00,26.67 -41.59,29.32 -43.18,31.96 -44.63,34.73 -46.08,37.49 -46.08,39.74 -46.08,42.00 -46.05,44.69 -46.02,47.37 -45.94,49.64 -45.85,51.91 -45.34,54.47 -44.83,57.03 -42.14,57.25 -39.44,57.46 -35.86,58.55 -32.28,59.64 -28.63,59.92 -24.98,60.20 -22.50,60.31 -20.03,60.43 -17.50,60.52 -14.98,60.60 -10.93,59.67 -6.89,58.74 -3.79,58.36 -0.69,57.99 2.42,56.40 5.54,54.80 7.57,52.42 9.59,50.04 10.28,49.39 10.98,48.74 11.85,48.34 12.71,47.94 13.66,47.84 14.61,47.74 15.54,47.95 16.47,48.16 17.29,48.65 18.10,49.15 18.72,49.88 19.33,50.61 19.68,51.49 20.03,52.38 20.08,53.33 20.13,54.28 19.87,55.20 19.61,56.12 19.07,56.91 18.53,57.69 17.77,58.27 17.01,58.84 16.11,59.14 15.20,59.44 14.25,59.44 13.29,59.44 12.39,59.13 11.49,58.82 10.73,58.24 9.98,57.66 9.44,56.87 8.91,56.08 8.66,55.16 8.41,54.24 8.46,53.29 8.52,52.34 8.87,51.45 9.23,50.57 9.85,49.84 10.47,49.12 11.29,48.63 12.11,48.14 13.04,47.94 13.97,47.74 14.92,47.85 15.87,47.95 16.73,48.36 17.60,48.76 18.28,49.42 18.97,50.08 19.42,50.92 19.86,51.77 20.01,52.71 20.16,53.65 20.00,54.59 19.85,55.53 19.40,56.37 18.95,57.21 18.95,57.21 18.95,57.21 17.19,59.30 15.44,61.39 13.15,63.22 10.87,65.06 8.60,66.20 6.34,67.35 3.61,68.36 0.89,69.37 -1.39,69.70 -3.68,70.03 -6.85,71.05 -10.03,72.07 -12.53,72.44 -15.03,72.82 -17.63,72.87 -20.23,72.92 -24.99,72.86 -29.76,72.80 -32.92,72.53 -36.08,72.26 -38.68,71.39 -41.28,70.51 -43.82,70.08 -46.35,69.65 -49.83,67.67 -53.30,65.69 -55.39,61.95 -57.49,58.22 -57.83,55.98 -58.17,53.75 -58.10,51.62 -58.02,49.49 -57.88,47.20 -57.74,44.90 -57.42,41.02 -57.09,37.14 -56.47,34.82 -55.86,32.50 -54.02,29.66 -52.19,26.82 -49.67,22.46 -47.16,18.10 -45.37,15.78 -43.57,13.46 -41.01,11.24 -38.44,9.02 -36.20,7.50 -33.96,5.98 -32.06,4.86 -30.16,3.73 -26.77,1.68 -23.38,-0.36 -19.02,-1.88 -14.66,-3.41 -12.18,-3.87 -9.69,-4.33 -7.49,-4.62 -5.29,-4.92 -2.64,-4.88 0,-4.84 0.58,-4.77 1.16,-4.70 1.70,-4.49 2.25,-4.29 2.73,-3.96 3.21,-3.62 3.60,-3.19 3.98,-2.75 4.26,-2.23 4.53,-1.71 4.67,-1.15 4.81,-0.58 4.81,0.00 4.81,0.58 4.67,1.15 4.53,1.71 4.26,2.23 3.98,2.75 3.60,3.19 3.21,3.62 2.73,3.96 2.25,4.29 1.70,4.49 1.15,4.70 0.57,4.77 -0.00,4.84 -0.00,4.84 L 0,4.84 Z"></path></g><g transform="translate(268.4679715302491 106.79452054794521) rotate(0 28.038256227758012 14.301369863013704)" stroke="none"><path fill="#e06458" d="M 5.14,0.48 Q 5.14,0.48 4.79,3.57 4.44,6.65 3.62,10.00 2.81,13.34 2.26,16.99 1.71,20.64 1.65,23.36 1.58,26.07 1.71,28.63 1.84,31.19 4.68,30.86 7.52,30.54 10.24,29.62 12.96,28.69 14.94,27.66 16.91,26.62 18.85,25.07 20.79,23.53 22.63,21.96 24.47,20.38 26.01,18.84 27.56,17.31 30.13,13.88 32.71,10.46 33.61,8.47 34.51,6.48 35.72,4.16 36.93,1.84 37.85,-1.62 38.77,-5.09 39.20,-7.03 39.62,-8.97 39.95,-9.65 40.27,-10.34 40.75,-10.93 41.23,-11.51 41.84,-11.97 42.45,-12.42 43.14,-12.72 43.84,-13.02 44.59,-13.14 45.34,-13.26 46.09,-13.20 46.85,-13.14 47.57,-12.90 48.29,-12.66 48.93,-12.25 49.57,-11.85 50.10,-11.30 50.62,-10.75 51.00,-10.10 51.38,-9.44 51.59,-8.71 51.80,-7.98 51.83,-7.23 51.86,-6.47 51.71,-5.73 51.56,-4.98 51.00,-2.41 50.44,0.15 50.03,3.40 49.63,6.65 49.45,10.28 49.28,13.91 49.28,17.05 49.27,20.20 49.31,22.71 49.35,25.23 52.46,24.81 55.57,24.38 57.91,24.39 60.25,24.40 61.30,24.59 62.35,24.78 63.28,25.29 64.22,25.81 64.94,26.59 65.66,27.38 66.09,28.35 66.52,29.32 66.62,30.38 66.71,31.44 66.47,32.48 66.22,33.52 65.66,34.42 65.10,35.32 64.27,36.00 63.45,36.67 62.46,37.05 61.46,37.43 60.40,37.47 59.33,37.51 58.31,37.21 57.29,36.91 56.42,36.30 55.55,35.69 54.92,34.83 54.29,33.97 53.96,32.96 53.64,31.94 53.66,30.88 53.67,29.81 54.03,28.81 54.39,27.81 55.04,26.97 55.70,26.13 56.59,25.55 57.48,24.96 58.51,24.70 59.54,24.43 60.61,24.50 61.67,24.58 62.65,24.99 63.63,25.40 64.43,26.10 65.23,26.80 65.77,27.72 66.30,28.64 66.51,29.69 66.73,30.73 66.59,31.79 66.46,32.84 66.00,33.80 65.54,34.76 64.79,35.52 64.05,36.28 63.10,36.77 62.15,37.25 61.10,37.41 60.04,37.56 60.04,37.56 60.04,37.56 57.67,37.50 55.30,37.43 52.64,37.46 49.98,37.49 47.19,37.13 44.40,36.77 41.59,34.77 38.78,32.77 37.65,30.39 36.52,28.01 36.42,25.13 36.33,22.24 36.38,19.47 36.43,16.69 36.53,13.02 36.62,9.35 37.04,5.78 37.46,2.21 37.81,-1.22 38.16,-4.65 38.89,-6.81 39.62,-8.97 39.95,-9.65 40.27,-10.34 40.75,-10.93 41.23,-11.51 41.84,-11.97 42.44,-12.42 43.14,-12.72 43.84,-13.02 44.59,-13.14 45.34,-13.26 46.09,-13.20 46.85,-13.14 47.57,-12.90 48.29,-12.66 48.93,-12.25 49.57,-11.85 50.09,-11.30 50.62,-10.76 51.00,-10.10 51.38,-9.44 51.59,-8.71 51.80,-7.98 51.83,-7.23 51.86,-6.47 51.71,-5.73 51.56,-4.98 51.33,-4.08 51.10,-3.17 49.97,-0.14 48.84,2.88 48.13,4.99 47.42,7.10 46.38,9.23 45.34,11.36 42.52,16.30 39.70,21.25 38.27,23.62 36.84,26.00 35.06,27.97 33.27,29.93 31.41,31.77 29.55,33.60 26.83,35.71 24.10,37.81 21.50,39.14 18.90,40.48 16.75,41.52 14.61,42.57 12.52,43.01 10.43,43.46 8.04,43.26 5.64,43.07 2.33,42.24 -0.98,41.42 -4.14,39.64 -7.30,37.86 -8.45,35.71 -9.61,33.55 -9.66,30.72 -9.72,27.90 -9.46,25.39 -9.20,22.89 -8.91,20.71 -8.62,18.54 -7.73,14.81 -6.83,11.08 -6.22,8.38 -5.61,5.68 -5.37,2.59 -5.14,-0.48 -5.00,-1.09 -4.87,-1.70 -4.60,-2.26 -4.32,-2.82 -3.92,-3.29 -3.52,-3.77 -3.02,-4.14 -2.51,-4.50 -1.94,-4.74 -1.36,-4.98 -0.75,-5.07 -0.13,-5.16 0.48,-5.10 1.10,-5.04 1.69,-4.84 2.28,-4.63 2.80,-4.29 3.32,-3.95 3.74,-3.49 4.17,-3.04 4.47,-2.50 4.78,-1.95 4.94,-1.35 5.11,-0.75 5.12,-0.13 5.14,0.48 5.14,0.48 L 5.14,0.48 Z"></path></g><g transform="translate(367.3665480427046 91.30136986301369) rotate(0 -17.332740213523124 30.986301369863014)" stroke="none"><path fill="#e06458" d="M 3.20,4.11 Q 3.20,4.11 0.50,6.08 -2.19,8.05 -5.84,11.12 -9.49,14.19 -12.05,15.98 -14.62,17.77 -16.15,19.52 -17.68,21.28 -18.00,23.53 -18.32,25.77 -16.40,27.86 -14.48,29.94 -12.62,32.82 -10.75,35.70 -10.24,38.95 -9.72,42.20 -10.04,44.44 -10.36,46.69 -12.05,50.09 -13.74,53.48 -15.92,55.72 -18.09,57.96 -21.41,60.83 -24.72,63.71 -28.18,65.83 -31.64,67.96 -32.68,68.28 -33.72,68.61 -34.80,68.59 -35.89,68.56 -36.91,68.20 -37.93,67.83 -38.78,67.15 -39.63,66.48 -40.22,65.57 -40.81,64.66 -41.08,63.60 -41.34,62.55 -41.26,61.47 -41.18,60.39 -40.76,59.39 -40.33,58.39 -39.61,57.58 -38.89,56.76 -37.95,56.22 -37.01,55.68 -35.95,55.47 -34.88,55.26 -33.81,55.40 -32.73,55.54 -31.75,56.02 -30.78,56.50 -30.01,57.26 -29.23,58.02 -28.75,58.99 -28.26,59.96 -28.11,61.04 -27.95,62.11 -28.15,63.18 -28.35,64.24 -28.88,65.19 -29.41,66.14 -30.21,66.87 -31.01,67.60 -32.01,68.03 -33.00,68.47 -34.09,68.56 -35.17,68.66 -36.22,68.40 -37.28,68.15 -38.19,67.57 -39.11,66.99 -39.80,66.14 -40.48,65.30 -40.86,64.29 -41.24,63.27 -41.28,62.18 -41.31,61.10 -41.00,60.06 -40.69,59.02 -40.06,58.14 -39.43,57.25 -38.55,56.61 -37.68,55.97 -37.68,55.97 -37.68,55.98 -34.95,54.29 -32.22,52.61 -30.09,50.62 -27.96,48.63 -26.37,47.19 -24.79,45.75 -23.36,43.74 -21.93,41.74 -23.29,39.94 -24.65,38.13 -25.47,35.93 -26.30,33.73 -27.95,31.26 -29.60,28.79 -29.91,26.52 -30.23,24.24 -29.54,21.63 -28.85,19.03 -27.59,16.37 -26.32,13.71 -24.06,11.58 -21.81,9.45 -19.60,7.79 -17.39,6.13 -14.76,4.79 -12.14,3.44 -10.24,1.80 -8.35,0.16 -5.77,-1.97 -3.20,-4.11 -2.66,-4.43 -2.12,-4.76 -1.52,-4.94 -0.92,-5.13 -0.29,-5.17 0.32,-5.20 0.94,-5.09 1.56,-4.97 2.13,-4.71 2.71,-4.45 3.20,-4.06 3.69,-3.67 4.08,-3.18 4.47,-2.68 4.72,-2.11 4.98,-1.53 5.09,-0.92 5.20,-0.30 5.16,0.32 5.12,0.95 4.94,1.55 4.75,2.15 4.42,2.69 4.09,3.22 3.65,3.67 3.20,4.11 3.20,4.11 L 3.20,4.11 Z"></path></g><g transform="translate(419.36476868327406 91.30136986301369) rotate(0 -14.274021352313184 30.986301369863014)" stroke="none"><path fill="#e06458" d="M 2.72,3.49 Q 2.72,3.49 0.09,5.49 -2.52,7.49 -4.54,10.46 -6.55,13.43 -8.40,16.58 -10.25,19.73 -11.91,23.03 -13.56,26.33 -14.76,29.16 -15.96,31.99 -17.36,34.97 -18.77,37.96 -19.88,40.33 -20.99,42.70 -21.56,45.02 -22.14,47.35 -22.78,50.23 -23.41,53.11 -23.27,55.63 -23.12,58.15 -21.25,56.99 -19.37,55.82 -16.48,55.27 -13.59,54.73 -11.13,53.22 -8.66,51.71 -7.70,51.29 -6.73,50.86 -5.67,50.77 -4.62,50.67 -3.59,50.92 -2.56,51.17 -1.66,51.73 -0.76,52.29 -0.09,53.11 0.57,53.93 0.94,54.92 1.32,55.91 1.35,56.97 1.39,58.03 1.09,59.04 0.79,60.06 0.18,60.93 -0.43,61.79 -1.28,62.42 -2.14,63.04 -3.15,63.36 -4.16,63.68 -5.21,63.66 -6.27,63.64 -7.27,63.28 -8.27,62.93 -9.10,62.27 -9.93,61.61 -10.51,60.72 -11.08,59.84 -11.35,58.81 -11.61,57.79 -11.54,56.73 -11.46,55.67 -11.05,54.70 -10.64,53.72 -9.94,52.93 -9.24,52.13 -8.32,51.60 -7.40,51.07 -6.36,50.87 -5.32,50.66 -4.27,50.79 -3.22,50.93 -2.27,51.39 -1.32,51.85 -0.56,52.60 0.18,53.34 0.66,54.28 1.14,55.23 1.29,56.28 1.44,57.32 1.25,58.37 1.06,59.41 0.55,60.33 0.03,61.26 -0.74,61.97 -1.52,62.69 -1.52,62.69 -1.52,62.69 -4.79,64.39 -8.06,66.09 -10.41,66.74 -12.76,67.38 -14.88,67.78 -17.00,68.18 -19.61,68.10 -22.23,68.01 -25.48,67.67 -28.73,67.34 -31.20,64.75 -33.66,62.16 -33.68,58.91 -33.69,55.66 -33.28,53.25 -32.88,50.84 -31.71,47.84 -30.54,44.84 -29.52,41.81 -28.49,38.78 -27.21,36.62 -25.93,34.45 -24.48,31.60 -23.03,28.75 -21.64,25.92 -20.24,23.09 -18.56,19.52 -16.88,15.94 -15.02,12.59 -13.16,9.24 -10.59,4.98 -8.02,0.72 -5.37,-1.38 -2.72,-3.49 -2.26,-3.76 -1.80,-4.04 -1.29,-4.20 -0.78,-4.35 -0.25,-4.38 0.27,-4.41 0.80,-4.32 1.32,-4.22 1.81,-4.00 2.30,-3.78 2.72,-3.45 3.13,-3.12 3.46,-2.70 3.79,-2.28 4.01,-1.79 4.23,-1.30 4.32,-0.78 4.42,-0.25 4.38,0.27 4.35,0.80 4.19,1.31 4.03,1.82 3.75,2.28 3.47,2.74 3.10,3.11 2.72,3.49 2.72,3.49 L 2.72,3.49 Z"></path></g><g transform="translate(625.1476868327402 36.86301369863014) rotate(0 -3.95106761565836 14.780821917808225)" stroke="none"><path fill="#e06458" d="M -5.80,5.29 Q -5.80,5.29 -7.92,5.34 -10.03,5.38 -11.76,7.25 -13.49,9.12 -14.20,11.27 -14.92,13.42 -15.00,15.96 -15.08,18.51 -12.74,19.66 -10.40,20.82 -7.21,21.75 -4.01,22.69 -1.59,22.71 0.82,22.73 3.06,22.73 5.29,22.73 5.85,20.19 6.41,17.66 6.47,15.27 6.52,12.87 5.92,10.49 5.33,8.11 2.63,7.44 -0.06,6.76 -1.08,6.20 -2.10,5.63 -2.88,4.77 -3.66,3.91 -4.13,2.85 -4.60,1.78 -4.70,0.62 -4.80,-0.53 -4.53,-1.66 -4.26,-2.79 -3.64,-3.78 -3.02,-4.76 -2.12,-5.50 -1.21,-6.23 -0.12,-6.64 0.96,-7.05 2.12,-7.09 3.28,-7.13 4.40,-6.80 5.51,-6.46 6.46,-5.79 7.41,-5.12 8.10,-4.18 8.78,-3.24 9.13,-2.12 9.48,-1.01 9.46,0.14 9.43,1.30 9.04,2.40 8.65,3.49 7.92,4.40 7.20,5.32 6.22,5.95 5.25,6.58 4.12,6.87 2.99,7.16 1.83,7.07 0.67,6.99 -0.39,6.53 -1.46,6.08 -2.34,5.31 -3.21,4.54 -3.79,3.53 -4.37,2.52 -4.59,1.38 -4.82,0.24 -4.67,-0.91 -4.52,-2.06 -4.01,-3.11 -3.50,-4.15 -2.68,-4.98 -1.87,-5.81 -0.83,-6.33 0.20,-6.86 1.35,-7.02 2.51,-7.19 3.65,-6.98 4.79,-6.76 4.79,-6.76 4.79,-6.76 6.81,-5.71 8.83,-4.66 12.25,-2.78 15.66,-0.89 17.68,2.43 19.71,5.77 20.05,9.50 20.39,13.24 20.23,15.72 20.07,18.21 19.25,21.50 18.43,24.78 16.37,28.38 14.30,31.98 11.93,33.70 9.56,35.41 7.45,35.89 5.33,36.37 2.75,36.32 0.16,36.28 -2.17,36.09 -4.51,35.90 -6.92,35.45 -9.33,34.99 -11.69,34.15 -14.05,33.30 -17.55,31.35 -21.04,29.39 -23.31,26.98 -25.58,24.58 -26.68,20.84 -27.78,17.11 -27.28,13.36 -26.79,9.62 -25.19,6.21 -23.60,2.80 -22.31,0.89 -21.01,-1.00 -18.03,-2.86 -15.05,-4.73 -12.59,-5.06 -10.12,-5.38 -7.96,-5.34 -5.80,-5.29 -5.17,-5.21 -4.54,-5.13 -3.94,-4.91 -3.34,-4.68 -2.82,-4.32 -2.29,-3.96 -1.87,-3.48 -1.45,-3.00 -1.15,-2.44 -0.85,-1.87 -0.70,-1.25 -0.55,-0.63 -0.55,0.00 -0.55,0.63 -0.70,1.25 -0.85,1.87 -1.15,2.44 -1.45,3.00 -1.87,3.48 -2.29,3.96 -2.82,4.32 -3.34,4.68 -3.94,4.91 -4.54,5.13 -5.17,5.21 -5.80,5.29 -5.80,5.29 L -5.80,5.29 Z"></path></g><g transform="translate(510.10676156583634 118.7123287671233) rotate(0 37.724199288256216 17.280821917808225)" stroke="none"><path fill="#e06458" d="M 5.14,0 Q 5.14,0 5.03,3.42 4.91,6.85 4.99,8.99 5.07,11.13 5.16,15.61 5.26,20.08 4.67,24.49 4.08,28.89 3.60,31.09 3.13,33.28 2.44,36.34 1.76,39.39 1.48,40.03 1.20,40.66 0.78,41.21 0.36,41.76 -0.18,42.20 -0.72,42.63 -1.35,42.92 -1.98,43.21 -2.66,43.34 -3.35,43.47 -4.04,43.44 -4.73,43.40 -5.40,43.20 -6.06,43.00 -6.66,42.65 -7.26,42.29 -7.75,41.81 -8.25,41.32 -8.61,40.73 -8.98,40.14 -9.19,39.48 -9.40,38.82 -9.45,38.12 -9.50,37.43 -9.38,36.75 -9.26,36.06 -8.00,33.69 -6.75,31.31 -3.63,27.38 -0.51,23.44 2.75,19.75 6.02,16.07 8.29,13.37 10.55,10.67 12.28,8.25 14.00,5.83 16.09,3.48 18.18,1.14 21.80,-2.45 25.42,-6.05 27.09,-7.90 28.76,-9.74 32.31,-10.79 35.86,-11.84 38.53,-10.49 41.20,-9.15 42.12,-7.10 43.05,-5.06 43.23,-2.42 43.42,0.21 43.30,3.60 43.19,6.98 43.21,9.42 43.24,11.86 43.15,14.96 43.07,18.06 43.10,20.43 43.13,22.79 42.48,25.79 41.83,28.78 41.63,32.08 41.44,35.38 41.42,35.61 41.40,35.85 41.26,36.52 41.13,37.19 40.83,37.80 40.54,38.42 40.11,38.95 39.68,39.48 39.14,39.89 38.59,40.31 37.96,40.57 37.34,40.84 36.66,40.96 35.99,41.07 35.31,41.01 34.63,40.96 33.98,40.75 33.33,40.53 32.75,40.17 32.17,39.80 31.70,39.31 31.23,38.82 30.88,38.23 30.54,37.64 30.35,36.98 30.16,36.33 30.13,35.65 30.10,34.96 31.67,32.31 33.24,29.65 34.28,27.38 35.33,25.11 37.02,22.19 38.71,19.27 40.33,16.26 41.94,13.25 43.37,11.09 44.79,8.93 46.13,6.90 47.48,4.87 49.08,2.76 50.68,0.66 52.44,-0.77 54.21,-2.21 56.57,-4.48 58.94,-6.76 61.38,-7.93 63.82,-9.10 66.43,-9.23 69.04,-9.36 71.48,-8.23 73.92,-7.10 75.50,-5.64 77.08,-4.17 78.84,-1.85 80.61,0.47 81.08,3.24 81.55,6.02 81.75,8.96 81.94,11.89 81.99,14.68 82.05,17.46 82.01,19.64 81.97,21.82 81.92,24.11 81.87,26.40 81.55,29.89 81.24,33.39 81.15,35.73 81.05,38.07 80.85,37.16 80.64,36.24 81.68,36.60 82.71,36.95 83.58,37.61 84.44,38.28 85.05,39.18 85.66,40.09 85.95,41.14 86.24,42.20 86.17,43.29 86.11,44.38 85.70,45.39 85.29,46.40 84.58,47.23 83.87,48.06 82.93,48.62 81.99,49.18 80.93,49.41 79.86,49.64 78.77,49.52 77.69,49.40 76.70,48.93 75.71,48.47 74.92,47.71 74.13,46.96 73.62,45.99 73.12,45.03 72.94,43.95 72.77,42.87 72.95,41.79 73.13,40.72 73.65,39.75 74.17,38.79 74.96,38.04 75.76,37.30 76.75,36.84 77.75,36.39 78.83,36.27 79.92,36.16 80.98,36.40 82.05,36.64 82.98,37.21 83.91,37.77 84.62,38.61 85.32,39.45 85.72,40.46 86.12,41.48 86.17,42.57 86.23,43.66 85.93,44.71 85.63,45.76 85.02,46.66 84.40,47.56 83.53,48.22 82.66,48.88 81.62,49.22 80.58,49.57 79.49,49.56 78.40,49.56 78.40,49.56 78.40,49.56 75.97,48.98 73.53,48.41 71.61,46.67 69.69,44.93 68.82,41.18 67.95,37.42 68.21,34.23 68.47,31.04 68.74,28.72 69.02,26.41 68.96,24.12 68.91,21.84 68.87,19.70 68.82,17.55 68.82,14.90 68.83,12.24 69.48,9.07 70.13,5.89 67.11,4.78 64.10,3.68 61.62,5.53 59.15,7.39 57.80,9.12 56.45,10.86 53.96,14.29 51.48,17.73 50.09,21.17 48.70,24.60 47.45,27.18 46.21,29.76 43.80,32.80 41.40,35.85 41.26,36.52 41.13,37.19 40.83,37.80 40.54,38.42 40.11,38.95 39.68,39.48 39.14,39.89 38.59,40.30 37.96,40.57 37.34,40.84 36.66,40.96 35.99,41.07 35.31,41.01 34.63,40.96 33.98,40.75 33.33,40.53 32.75,40.17 32.17,39.80 31.70,39.31 31.23,38.82 30.88,38.23 30.54,37.64 30.35,36.98 30.16,36.33 30.13,35.65 30.10,34.96 30.35,33.32 30.60,31.67 31.45,27.20 32.30,22.72 32.33,20.41 32.35,18.09 32.25,15.01 32.15,11.94 32.14,9.53 32.13,7.12 31.94,2.37 31.75,-2.37 33.97,-2.29 36.18,-2.20 33.93,-0.33 31.68,1.54 29.85,2.96 28.03,4.37 26.53,5.91 25.02,7.44 23.23,9.30 21.45,11.15 19.58,13.77 17.70,16.39 15.63,19.11 13.56,21.84 10.78,26.06 7.99,30.29 6.19,32.85 4.38,35.41 3.07,37.40 1.76,39.39 1.48,40.03 1.20,40.66 0.78,41.21 0.36,41.76 -0.18,42.20 -0.72,42.63 -1.35,42.92 -1.98,43.21 -2.66,43.34 -3.35,43.47 -4.04,43.44 -4.73,43.40 -5.40,43.20 -6.06,43.00 -6.66,42.65 -7.26,42.29 -7.75,41.81 -8.25,41.32 -8.61,40.73 -8.98,40.14 -9.19,39.48 -9.40,38.82 -9.45,38.12 -9.50,37.43 -9.38,36.75 -9.26,36.06 -8.45,33.49 -7.64,30.91 -7.03,28.17 -6.42,25.43 -5.84,22.76 -5.26,20.08 -5.16,15.61 -5.07,11.13 -4.99,8.99 -4.91,6.85 -5.03,3.42 -5.14,0 -5.07,-0.61 -4.99,-1.23 -4.77,-1.81 -4.55,-2.39 -4.20,-2.90 -3.85,-3.41 -3.38,-3.82 -2.92,-4.23 -2.37,-4.52 -1.82,-4.81 -1.22,-4.96 -0.62,-5.10 0.00,-5.10 0.62,-5.10 1.22,-4.96 1.82,-4.81 2.37,-4.52 2.92,-4.23 3.38,-3.82 3.85,-3.41 4.20,-2.90 4.55,-2.39 4.77,-1.81 4.99,-1.23 5.07,-0.61 5.14,0.00 5.14,0.00 L 5.14,0 Z"></path></g><g transform="translate(626.338078291815 90.10958904109589) rotate(0 1.019572953736656 5.363013698630141)" stroke="none"><path fill="#e06458" d="M 4.60,-1.31 Q 4.60,-1.31 5.27,0.72 5.95,2.75 6.55,6.40 7.16,10.05 7.13,10.89 7.10,11.72 6.81,12.50 6.52,13.29 5.99,13.94 5.46,14.59 4.76,15.03 4.05,15.48 3.24,15.68 2.43,15.87 1.59,15.80 0.76,15.73 -0.00,15.39 -0.76,15.06 -1.38,14.50 -2.00,13.94 -2.41,13.21 -2.82,12.48 -2.97,11.66 -3.12,10.83 -3.00,10.01 -2.89,9.18 -2.51,8.43 -2.14,7.68 -1.54,7.10 -0.95,6.51 -0.20,6.14 0.54,5.77 1.37,5.66 2.20,5.56 3.02,5.72 3.84,5.88 4.57,6.30 5.29,6.71 5.85,7.34 6.40,7.96 6.73,8.73 7.06,9.50 7.12,10.33 7.18,11.17 6.98,11.98 6.77,12.79 6.32,13.49 5.86,14.19 5.21,14.71 4.55,15.23 3.77,15.52 2.98,15.80 2.14,15.82 1.31,15.84 0.51,15.59 -0.28,15.34 -0.95,14.85 -1.63,14.36 -2.11,13.67 -2.60,12.99 -2.84,12.19 -3.08,11.39 -3.08,11.39 -3.08,11.39 -3.34,8.43 -3.60,5.46 -4.10,3.39 -4.60,1.31 -4.69,0.74 -4.78,0.17 -4.73,-0.40 -4.69,-0.97 -4.50,-1.52 -4.32,-2.07 -4.00,-2.55 -3.69,-3.04 -3.28,-3.44 -2.86,-3.84 -2.36,-4.12 -1.85,-4.41 -1.30,-4.57 -0.74,-4.73 -0.17,-4.75 0.40,-4.77 0.97,-4.65 1.53,-4.53 2.05,-4.28 2.57,-4.03 3.02,-3.67 3.46,-3.30 3.81,-2.84 4.15,-2.37 4.38,-1.84 4.60,-1.31 4.60,-1.31 L 4.60,-1.31 Z"></path></g><g transform="translate(616.1423487544484 124.67123287671234) rotate(0 11.725088967971544 19.66438356164383)" stroke="none"><path fill="#e06458" d="M 0.73,-5.05 Q 0.73,-5.05 3.08,-4.75 5.44,-4.45 9.57,-3.55 13.71,-2.65 15.28,-0.79 16.85,1.06 17.13,5.11 17.40,9.16 15.78,12.47 14.16,15.78 13.46,18.01 12.75,20.25 10.90,23.56 9.06,26.87 7.84,29.34 6.62,31.81 5.33,34.92 4.04,38.03 3.58,35.92 3.12,33.82 5.26,33.50 7.39,33.18 11.12,32.30 14.84,31.42 16.99,30.55 19.13,29.69 19.48,28.30 19.84,26.92 20.44,26.09 21.05,25.27 21.89,24.68 22.73,24.09 23.71,23.80 24.69,23.50 25.72,23.54 26.74,23.58 27.70,23.94 28.66,24.31 29.45,24.96 30.24,25.61 30.78,26.48 31.33,27.34 31.57,28.34 31.80,29.34 31.71,30.36 31.62,31.38 31.20,32.32 30.79,33.25 30.10,34.01 29.40,34.77 28.51,35.26 27.61,35.76 26.60,35.94 25.59,36.12 24.58,35.97 23.56,35.83 22.65,35.36 21.74,34.90 21.02,34.17 20.30,33.43 19.86,32.51 19.41,31.59 19.28,30.57 19.15,29.55 19.36,28.55 19.56,27.55 20.07,26.66 20.59,25.77 21.36,25.09 22.13,24.42 23.07,24.02 24.02,23.63 25.04,23.55 26.06,23.48 27.05,23.74 28.05,24.00 28.90,24.56 29.76,25.12 30.40,25.92 31.03,26.73 31.37,27.69 31.72,28.66 31.73,29.68 31.75,30.71 31.44,31.69 31.13,32.66 31.13,32.66 31.13,32.66 29.08,35.87 27.03,39.08 23.89,40.69 20.75,42.29 17.37,43.00 13.98,43.71 10.60,44.54 7.22,45.38 4.75,45.16 2.27,44.94 -0.28,44.28 -2.84,43.63 -4.28,41.79 -5.71,39.95 -5.97,36.96 -6.23,33.96 -4.60,30.60 -2.97,27.25 -1.72,24.53 -0.47,21.82 0.73,19.37 1.93,16.92 2.89,13.67 3.84,10.42 6.16,8.50 8.47,6.57 6.20,6.20 3.93,5.82 1.60,5.43 -0.73,5.05 -1.33,4.89 -1.92,4.72 -2.46,4.42 -3.00,4.13 -3.45,3.71 -3.90,3.29 -4.24,2.77 -4.57,2.26 -4.78,1.68 -4.98,1.10 -5.04,0.48 -5.10,-0.12 -5.01,-0.73 -4.92,-1.34 -4.69,-1.91 -4.46,-2.48 -4.10,-2.98 -3.73,-3.47 -3.26,-3.87 -2.79,-4.27 -2.24,-4.54 -1.69,-4.81 -1.09,-4.94 -0.49,-5.08 0.12,-5.06 0.73,-5.05 0.73,-5.05 L 0.73,-5.05 Z"></path></g><g transform="translate(653.73450533731 127.82426017681638) rotate(354.3608526431514 16.313167259786496 17.041146882076333)" stroke="none"><path fill="#e06458" d="M 8.88,-4.79 Q 8.88,-4.79 3.81,-4.62 7.62,-4.46 12.17,-4.22 16.72,-3.98 20.42,-3.93 24.12,-3.88 26.67,-3.58 29.23,-3.27 32.65,-1.03 36.07,1.19 36.19,3.89 36.31,6.59 34.96,8.80 33.60,11.01 31.58,13.53 29.56,16.05 26.22,18.04 22.88,20.03 19.24,21.76 15.60,23.49 13.22,25.33 10.83,27.17 7.88,28.76 4.92,30.34 3.34,31.94 1.76,33.54 0.17,30.91 -1.41,28.29 2.49,28.23 6.39,28.18 9.24,28.27 12.08,28.36 14.47,28.37 16.86,28.38 19.92,28.48 22.99,28.59 26.35,28.72 29.70,28.86 33.20,28.77 36.70,28.69 37.56,28.83 38.42,28.97 39.19,29.38 39.96,29.79 40.56,30.42 41.16,31.06 41.52,31.85 41.89,32.64 41.98,33.50 42.08,34.37 41.89,35.22 41.70,36.07 41.25,36.82 40.80,37.57 40.14,38.13 39.48,38.69 38.67,39.02 37.86,39.34 36.99,39.39 36.12,39.43 35.28,39.20 34.44,38.97 33.72,38.48 32.99,37.99 32.47,37.29 31.94,36.60 31.66,35.77 31.38,34.95 31.38,34.08 31.38,33.20 31.66,32.38 31.94,31.55 32.47,30.86 33.00,30.17 33.72,29.68 34.44,29.19 35.28,28.95 36.12,28.72 36.99,28.77 37.86,28.82 38.67,29.14 39.48,29.46 40.14,30.03 40.81,30.59 41.26,31.34 41.70,32.09 41.89,32.94 42.08,33.79 41.98,34.65 41.89,35.52 41.52,36.31 41.16,37.10 40.56,37.73 39.96,38.37 39.19,38.78 38.42,39.18 37.56,39.32 36.70,39.46 36.70,39.46 36.70,39.46 33.20,39.38 29.70,39.29 26.34,39.43 22.98,39.56 19.91,39.66 16.84,39.76 14.44,39.76 12.04,39.76 9.14,39.83 6.24,39.90 2.93,39.71 -0.38,39.51 -3.14,38.57 -5.90,37.62 -5.58,31.90 -5.26,26.19 -2.28,24.12 0.69,22.06 2.93,21.01 5.16,19.95 8.07,17.60 10.99,15.24 14.32,13.10 17.64,10.96 21.03,8.37 24.42,5.78 26.66,5.27 28.90,4.75 26.49,4.32 24.09,3.88 20.40,3.93 16.72,3.98 12.17,4.22 7.62,4.46 3.81,4.62 8.88,4.79 -0.57,4.72 -1.14,4.65 -1.68,4.44 -2.22,4.24 -2.70,3.91 -3.17,3.58 -3.56,3.15 -3.94,2.72 -4.21,2.21 -4.48,1.69 -4.62,1.13 -4.75,0.57 -4.75,-0.00 -4.75,-0.57 -4.62,-1.13 -4.48,-1.70 -4.21,-2.21 -3.94,-2.72 -3.56,-3.15 -3.17,-3.58 -2.70,-3.91 -2.22,-4.24 -1.68,-4.45 -1.14,-4.65 -0.57,-4.72 0.00,-4.79 0.00,-4.79 L 8.88,-4.79 Z"></path></g><g transform="translate(726.2758007117438 140.39726027397262) rotate(0 10.705516014234888 -5.363013698630141)" stroke="none"><path fill="#e06458" d="M -0.59,-5.08 Q -0.59,-5.08 2.34,-5.40 5.27,-5.71 8.14,-5.88 11.00,-6.05 13.54,-6.74 16.07,-7.44 15.91,-9.58 15.74,-11.72 16.05,-12.60 16.36,-13.48 16.93,-14.21 17.50,-14.94 18.28,-15.46 19.05,-15.97 19.95,-16.21 20.85,-16.45 21.78,-16.39 22.71,-16.32 23.57,-15.97 24.43,-15.61 25.13,-15.00 25.83,-14.39 26.30,-13.59 26.77,-12.79 26.96,-11.88 27.15,-10.96 27.04,-10.04 26.93,-9.12 26.53,-8.28 26.13,-7.44 25.48,-6.77 24.83,-6.10 24.00,-5.67 23.18,-5.25 22.26,-5.11 21.34,-4.97 20.42,-5.13 19.50,-5.29 18.69,-5.74 17.87,-6.18 17.24,-6.87 16.61,-7.55 16.23,-8.40 15.85,-9.25 15.76,-10.18 15.67,-11.10 15.88,-12.01 16.09,-12.91 16.58,-13.71 17.07,-14.50 17.78,-15.09 18.50,-15.69 19.37,-16.02 20.24,-16.35 21.17,-16.39 22.10,-16.43 22.99,-16.17 23.88,-15.91 24.65,-15.38 25.41,-14.85 25.97,-14.10 26.52,-13.35 26.81,-12.47 27.09,-11.58 27.08,-10.65 27.07,-9.72 27.07,-9.72 27.07,-9.72 25.92,-6.01 24.77,-2.30 22.84,-0.24 20.91,1.81 18.88,2.56 16.84,3.30 14.20,3.70 11.56,4.09 9.00,4.22 6.44,4.34 3.52,4.71 0.59,5.08 -0.02,5.08 -0.64,5.08 -1.23,4.93 -1.83,4.78 -2.38,4.49 -2.92,4.20 -3.38,3.79 -3.84,3.37 -4.19,2.86 -4.54,2.35 -4.76,1.78 -4.97,1.20 -5.04,0.58 -5.12,-0.02 -5.04,-0.63 -4.96,-1.24 -4.74,-1.82 -4.52,-2.40 -4.17,-2.90 -3.81,-3.41 -3.35,-3.82 -2.88,-4.22 -2.34,-4.51 -1.79,-4.79 -1.19,-4.94 -0.59,-5.08 -0.59,-5.08 L -0.59,-5.08 Z"></path></g><g transform="translate(745.6476868327403 123.7123287671233) rotate(0 -11.725088967971544 14.897260273972591)" stroke="none"><path fill="#e06458" d="M -2.09,4.65 Q -2.09,4.65 -5.77,2.67 -9.46,0.68 -11.69,0.13 -13.92,-0.41 -16.51,-0.55 -19.10,-0.70 -21.30,0.77 -23.50,2.24 -26.29,5.94 -29.08,9.65 -31.06,13.91 -33.05,18.17 -33.63,20.64 -34.22,23.12 -34.78,25.93 -35.35,28.75 -30.55,29.13 -25.75,29.52 -23.62,29.54 -21.49,29.56 -17.66,29.87 -13.82,30.19 -9.26,30.56 -4.70,30.93 -1.59,30.95 1.51,30.98 3.67,30.60 5.83,30.22 9.09,29.36 12.35,28.50 14.09,27.34 15.84,26.18 16.67,25.90 17.50,25.63 18.38,25.63 19.25,25.64 20.08,25.92 20.91,26.21 21.61,26.74 22.30,27.28 22.79,28.00 23.28,28.73 23.51,29.58 23.74,30.43 23.69,31.30 23.63,32.18 23.31,32.99 22.98,33.80 22.40,34.47 21.83,35.13 21.08,35.58 20.32,36.03 19.47,36.21 18.61,36.40 17.74,36.30 16.87,36.20 16.07,35.82 15.28,35.45 14.65,34.84 14.01,34.24 13.61,33.46 13.20,32.68 13.06,31.82 12.93,30.95 13.07,30.09 13.22,29.22 13.64,28.45 14.05,27.68 14.69,27.08 15.33,26.48 16.13,26.11 16.93,25.75 17.80,25.66 18.67,25.57 19.53,25.76 20.38,25.96 21.13,26.41 21.88,26.87 22.44,27.54 23.01,28.21 23.33,29.03 23.65,29.85 23.69,30.72 23.73,31.60 23.49,32.44 23.25,33.29 22.76,34.01 22.26,34.73 21.56,35.26 20.86,35.79 20.86,35.79 20.86,35.78 16.24,37.39 11.62,39.00 9.39,39.45 7.17,39.90 4.34,40.21 1.52,40.52 -1.59,40.54 -4.70,40.57 -9.27,40.94 -13.83,41.30 -17.68,41.61 -21.52,41.92 -23.66,41.93 -25.80,41.94 -28.79,42.08 -31.78,42.21 -34.11,42.21 -36.44,42.21 -38.93,41.73 -41.42,41.24 -43.30,39.62 -45.18,38.00 -46.26,36.07 -47.34,34.13 -47.48,30.78 -47.62,27.42 -47.24,24.77 -46.87,22.12 -45.87,19.22 -44.86,16.33 -43.35,13.27 -41.85,10.21 -40.83,7.28 -39.82,4.35 -37.48,1.86 -35.14,-0.62 -32.23,-3.93 -29.33,-7.23 -27.34,-8.30 -25.36,-9.37 -21.95,-10.09 -18.54,-10.82 -14.93,-10.08 -11.31,-9.35 -8.54,-8.44 -5.77,-7.54 -1.84,-6.09 2.09,-4.65 2.61,-4.33 3.14,-4.01 3.58,-3.58 4.01,-3.14 4.33,-2.62 4.65,-2.09 4.83,-1.50 5.01,-0.92 5.05,-0.30 5.09,0.30 4.98,0.91 4.87,1.51 4.61,2.07 4.36,2.63 3.98,3.12 3.60,3.60 3.12,3.98 2.64,4.36 2.08,4.61 1.51,4.87 0.91,4.98 0.30,5.09 -0.30,5.05 -0.91,5.01 -1.50,4.83 -2.09,4.65 -2.09,4.65 L -2.09,4.65 Z"></path></g><g transform="translate(378 106) rotate(0 24.5 -0.5)" stroke="none"><path fill="#e06458" d="M -0.52,-5.26 Q -0.52,-5.26 2.35,-5.52 5.23,-5.77 8.71,-6.10 12.19,-6.44 15.25,-6.59 18.32,-6.73 20.69,-6.85 23.06,-6.97 25.37,-7.06 27.68,-7.15 30.31,-7.22 32.94,-7.30 35.80,-7.40 38.65,-7.50 41.42,-7.57 44.18,-7.65 46.59,-7.69 48.99,-7.74 50.07,-7.56 51.15,-7.39 52.11,-6.88 53.08,-6.37 53.83,-5.57 54.58,-4.78 55.04,-3.79 55.49,-2.80 55.61,-1.71 55.73,-0.63 55.50,0.43 55.26,1.49 54.70,2.43 54.14,3.36 53.30,4.07 52.47,4.78 51.46,5.18 50.44,5.58 49.35,5.64 48.26,5.70 47.21,5.41 46.16,5.12 45.26,4.50 44.36,3.89 43.70,3.02 43.03,2.15 42.69,1.12 42.34,0.09 42.34,-1.00 42.34,-2.09 42.69,-3.12 43.04,-4.16 43.70,-5.02 44.36,-5.89 45.26,-6.51 46.16,-7.12 47.22,-7.41 48.27,-7.70 49.36,-7.64 50.45,-7.58 51.46,-7.18 52.47,-6.77 53.31,-6.07 54.14,-5.36 54.70,-4.43 55.26,-3.49 55.50,-2.42 55.73,-1.36 55.61,-0.27 55.49,0.80 55.04,1.79 54.58,2.78 53.83,3.57 53.08,4.37 52.11,4.88 51.15,5.39 50.07,5.56 48.99,5.74 48.99,5.74 49.00,5.74 46.59,5.69 44.18,5.65 41.42,5.57 38.65,5.50 35.80,5.40 32.94,5.30 30.31,5.22 27.68,5.15 25.38,5.06 23.07,4.97 20.75,4.87 18.42,4.76 15.46,4.68 12.51,4.59 9.39,4.61 6.26,4.62 3.39,4.94 0.52,5.26 -0.11,5.25 -0.74,5.24 -1.36,5.07 -1.98,4.91 -2.54,4.60 -3.09,4.29 -3.56,3.86 -4.03,3.42 -4.38,2.89 -4.74,2.36 -4.95,1.75 -5.16,1.15 -5.23,0.52 -5.29,-0.11 -5.20,-0.74 -5.11,-1.37 -4.87,-1.96 -4.63,-2.56 -4.26,-3.07 -3.88,-3.59 -3.40,-4.00 -2.91,-4.42 -2.34,-4.70 -1.77,-4.99 -1.14,-5.12 -0.52,-5.26 -0.52,-5.26 L -0.52,-5.26 Z"></path></g><g transform="translate(290.06333333333333 57) rotate(0 -128.79166666666666 -20.5)" stroke="none"><path fill="#e06458" d="M -1.26,2.95 Q -1.26,2.95 -4.01,1.95 -6.77,0.95 -11.59,-1.06 -16.41,-3.08 -20.71,-5.17 -25.01,-7.26 -31.54,-9.84 -38.07,-12.43 -44.99,-15.61 -51.91,-18.78 -57.38,-20.66 -62.85,-22.53 -69.99,-24.49 -77.13,-26.44 -84.67,-27.84 -92.21,-29.24 -100.65,-31.30 -109.09,-33.37 -115.47,-34.21 -121.84,-35.06 -129.45,-36.01 -137.05,-36.96 -144.51,-37.36 -151.96,-37.75 -157.29,-37.93 -162.63,-38.10 -169.40,-37.89 -176.17,-37.67 -183.54,-36.73 -190.91,-35.79 -195.89,-34.82 -200.87,-33.86 -205.50,-32.07 -210.13,-30.28 -215.33,-27.81 -220.53,-25.33 -224.11,-23.62 -227.70,-21.91 -231.51,-19.58 -235.33,-17.25 -238.69,-15.48 -242.05,-13.72 -244.64,-12.07 -247.23,-10.42 -249.62,-8.80 -252.01,-7.17 -254.41,-5.83 -256.82,-4.48 -257.43,-4.30 -258.03,-4.12 -258.66,-4.15 -259.29,-4.17 -259.88,-4.40 -260.47,-4.62 -260.96,-5.02 -261.45,-5.42 -261.78,-5.96 -262.11,-6.49 -262.26,-7.11 -262.41,-7.72 -262.35,-8.35 -262.29,-8.98 -262.03,-9.55 -261.78,-10.13 -261.35,-10.60 -260.93,-11.06 -260.37,-11.37 -259.82,-11.67 -259.20,-11.78 -258.58,-11.89 -257.95,-11.80 -257.33,-11.71 -256.77,-11.42 -256.21,-11.14 -255.76,-10.69 -255.32,-10.24 -255.05,-9.67 -254.77,-9.10 -254.70,-8.47 -254.62,-7.85 -254.74,-7.23 -254.87,-6.61 -255.19,-6.06 -255.50,-5.52 -255.98,-5.10 -256.45,-4.69 -257.03,-4.44 -257.62,-4.20 -258.24,-4.16 -258.87,-4.11 -259.48,-4.27 -260.10,-4.43 -260.62,-4.77 -261.15,-5.12 -261.54,-5.62 -261.93,-6.11 -262.14,-6.71 -262.35,-7.30 -262.36,-7.93 -262.37,-8.56 -262.18,-9.17 -261.99,-9.77 -261.62,-10.27 -261.24,-10.78 -260.73,-11.15 -260.21,-11.51 -260.21,-11.51 -260.21,-11.51 -257.96,-12.41 -255.72,-13.31 -253.08,-14.72 -250.44,-16.14 -247.54,-17.58 -244.63,-19.02 -241.40,-20.46 -238.17,-21.90 -234.09,-24.42 -230.00,-26.94 -226.39,-28.51 -222.78,-30.09 -217.40,-32.64 -212.01,-35.19 -206.95,-37.11 -201.89,-39.03 -196.73,-40.02 -191.57,-41.02 -183.96,-41.99 -176.34,-42.95 -169.40,-43.17 -162.46,-43.39 -157.07,-43.22 -151.68,-43.05 -144.04,-42.65 -136.40,-42.25 -128.77,-41.31 -121.14,-40.37 -114.48,-39.49 -107.82,-38.61 -99.52,-36.60 -91.22,-34.60 -83.46,-33.18 -75.69,-31.77 -68.37,-29.82 -61.05,-27.86 -55.30,-25.95 -49.54,-24.04 -42.73,-21.01 -35.93,-17.99 -29.16,-15.45 -22.39,-12.91 -18.20,-11.06 -14.01,-9.21 -9.00,-7.38 -3.99,-5.55 -1.36,-4.25 1.26,-2.95 1.59,-2.76 1.93,-2.56 2.21,-2.30 2.49,-2.03 2.69,-1.70 2.90,-1.37 3.02,-1.00 3.15,-0.64 3.18,-0.25 3.21,0.13 3.15,0.51 3.08,0.89 2.93,1.25 2.78,1.61 2.55,1.92 2.31,2.22 2.01,2.47 1.71,2.71 1.36,2.88 1.01,3.05 0.63,3.12 0.25,3.20 -0.13,3.18 -0.51,3.17 -0.89,3.06 -1.26,2.95 -1.26,2.95 L -1.26,2.95 Z"></path></g><g transform="translate(36.22666666666666 18) rotate(0 8.89833333333334 18)" stroke="none"><path fill="#e06458" d="M 3.83,3.59 Q 3.83,3.59 2.24,5.34 0.65,7.09 -0.80,8.71 -2.26,10.33 -3.45,12.12 -4.63,13.92 -7.08,17.31 -9.52,20.70 -11.60,22.55 -13.68,24.40 -15.31,26.10 -16.93,27.80 -18.48,30.08 -20.02,32.37 -20.61,29.46 -21.20,26.55 -18.64,26.35 -16.09,26.15 -12.69,27.43 -9.30,28.71 -5.68,29.42 -2.06,30.13 1.75,30.56 5.58,30.99 11.49,31.34 17.41,31.69 23.98,31.93 30.55,32.17 34.43,32.25 38.30,32.32 41.17,32.21 44.03,32.09 44.66,32.20 45.28,32.30 45.83,32.60 46.39,32.90 46.82,33.36 47.26,33.82 47.52,34.39 47.78,34.96 47.85,35.59 47.92,36.22 47.78,36.84 47.64,37.45 47.31,37.99 46.98,38.53 46.50,38.94 46.02,39.35 45.43,39.58 44.84,39.81 44.21,39.84 43.58,39.87 42.97,39.70 42.37,39.53 41.84,39.18 41.32,38.82 40.94,38.31 40.56,37.81 40.36,37.21 40.16,36.61 40.17,35.98 40.17,35.35 40.37,34.75 40.58,34.15 40.96,33.65 41.34,33.15 41.87,32.80 42.39,32.45 43.00,32.28 43.61,32.11 44.24,32.15 44.87,32.19 45.46,32.42 46.04,32.66 46.52,33.07 47.00,33.48 47.33,34.02 47.65,34.56 47.78,35.18 47.92,35.80 47.85,36.43 47.78,37.05 47.51,37.63 47.24,38.20 46.80,38.65 46.37,39.11 45.81,39.41 45.25,39.70 44.63,39.80 44.00,39.90 44.00,39.90 44.00,39.90 41.14,39.76 38.27,39.63 34.39,39.68 30.51,39.72 23.91,39.90 17.30,40.07 11.23,40.27 5.15,40.47 1.02,40.54 -3.09,40.61 -8.03,40.48 -12.97,40.35 -15.77,39.64 -18.57,38.93 -21.12,38.58 -23.67,38.23 -26.02,37.45 -28.38,36.68 -29.74,34.76 -31.10,32.85 -30.63,29.32 -30.15,25.79 -28.43,23.29 -26.70,20.79 -24.86,19.10 -23.01,17.41 -20.75,15.73 -18.48,14.04 -16.03,10.93 -13.57,7.82 -11.87,5.38 -10.17,2.94 -8.64,1.37 -7.11,-0.19 -5.47,-1.89 -3.83,-3.59 -3.35,-4.00 -2.86,-4.40 -2.29,-4.68 -1.72,-4.96 -1.10,-5.10 -0.48,-5.23 0.14,-5.21 0.77,-5.20 1.38,-5.03 2.00,-4.86 2.55,-4.55 3.10,-4.24 3.56,-3.80 4.03,-3.37 4.37,-2.84 4.72,-2.31 4.93,-1.71 5.13,-1.11 5.19,-0.48 5.25,0.14 5.16,0.77 5.06,1.39 4.82,1.98 4.58,2.57 4.21,3.08 3.83,3.59 3.83,3.59 L 3.83,3.59 Z"></path></g><g transform="translate(789 223) rotate(0 0.00004999999998744897 0.00004999999998744897)" stroke="none"><path fill="#e06458" d="M 3.14,-3.14 Q 3.14,-3.14 3.55,-2.55 3.97,-1.97 4.18,-1.28 4.40,-0.59 4.38,0.11 4.36,0.83 4.11,1.51 3.86,2.18 3.41,2.74 2.96,3.30 2.36,3.69 1.75,4.08 1.05,4.25 0.36,4.42 -0.35,4.36 -1.07,4.31 -1.73,4.02 -2.39,3.74 -2.92,3.26 -3.46,2.78 -3.81,2.15 -4.16,1.53 -4.30,0.82 -4.43,0.11 -4.34,-0.59 -4.24,-1.30 -3.92,-1.94 -3.60,-2.59 -3.09,-3.09 -2.59,-3.60 -1.94,-3.92 -1.30,-4.24 -0.59,-4.34 0.12,-4.43 0.82,-4.30 1.53,-4.16 2.15,-3.81 2.78,-3.46 3.26,-2.92 3.74,-2.39 4.02,-1.73 4.31,-1.07 4.36,-0.35 4.42,0.36 4.25,1.05 4.07,1.75 3.69,2.36 3.30,2.96 2.74,3.41 2.18,3.86 1.51,4.11 0.83,4.36 0.11,4.38 -0.60,4.40 -1.28,4.18 -1.97,3.97 -2.55,3.55 -3.14,3.13 -3.14,3.14 -3.14,3.14 -3.47,2.71 -3.80,2.29 -4.02,1.80 -4.24,1.32 -4.33,0.79 -4.43,0.26 -4.40,-0.26 -4.36,-0.80 -4.20,-1.31 -4.04,-1.82 -3.77,-2.28 -3.49,-2.73 -3.11,-3.11 -2.73,-3.49 -2.28,-3.77 -1.82,-4.05 -1.31,-4.20 -0.80,-4.36 -0.26,-4.40 0.26,-4.43 0.79,-4.33 1.32,-4.24 1.80,-4.02 2.29,-3.80 2.71,-3.47 3.14,-3.14 3.14,-3.14 L 3.14,-3.14 Z"></path></g><g transform="translate(790 223) rotate(0 0.00004999999998744897 0.00004999999998744897)" stroke="none"><path fill="#e06458" d="M 3.14,-3.14 Q 3.14,-3.14 3.55,-2.55 3.97,-1.97 4.18,-1.28 4.40,-0.59 4.38,0.11 4.36,0.83 4.11,1.51 3.86,2.18 3.41,2.74 2.96,3.30 2.36,3.69 1.75,4.08 1.05,4.25 0.36,4.42 -0.35,4.36 -1.07,4.31 -1.73,4.02 -2.39,3.74 -2.92,3.26 -3.46,2.78 -3.81,2.15 -4.16,1.53 -4.30,0.82 -4.43,0.11 -4.34,-0.59 -4.24,-1.30 -3.92,-1.94 -3.60,-2.59 -3.09,-3.09 -2.59,-3.60 -1.94,-3.92 -1.30,-4.24 -0.59,-4.34 0.12,-4.43 0.82,-4.30 1.53,-4.16 2.15,-3.81 2.78,-3.46 3.26,-2.92 3.74,-2.39 4.02,-1.73 4.31,-1.07 4.36,-0.35 4.42,0.36 4.25,1.05 4.07,1.75 3.69,2.36 3.30,2.96 2.74,3.41 2.18,3.86 1.51,4.11 0.83,4.36 0.11,4.38 -0.60,4.40 -1.28,4.18 -1.97,3.97 -2.55,3.55 -3.14,3.13 -3.14,3.14 -3.14,3.14 -3.47,2.71 -3.80,2.29 -4.02,1.80 -4.24,1.32 -4.33,0.79 -4.43,0.26 -4.40,-0.26 -4.36,-0.80 -4.20,-1.31 -4.04,-1.82 -3.77,-2.28 -3.49,-2.73 -3.11,-3.11 -2.73,-3.49 -2.28,-3.77 -1.82,-4.05 -1.31,-4.20 -0.80,-4.36 -0.26,-4.40 0.26,-4.43 0.79,-4.33 1.32,-4.24 1.80,-4.02 2.29,-3.80 2.71,-3.47 3.14,-3.14 3.14,-3.14 L 3.14,-3.14 Z"></path></g></svg>